<svg width="26" height="24" viewBox="0 0 26 24" fill="none" xmlns="http://www.w3.org/2000/svg">
<path d="M7.4157 21.6245C7.13857 21.3742 7 21.0778 7 20.7353C7 20.3929 7.13857 20.0968 7.4157 19.8472L15.5358 12.5125L7.38799 5.15283C7.12933 4.91919 7 4.62714 7 4.27668C7 3.92622 7.13857 3.62582 7.4157 3.37549C7.69284 3.12516 8.02097 3 8.40009 3C8.77921 3 9.10697 3.12516 9.38337 3.37549L18.6951 11.8116C18.806 11.9117 18.8847 12.0202 18.9313 12.137C18.9778 12.2538 19.0007 12.379 19 12.5125C19 12.646 18.9767 12.7712 18.9301 12.888C18.8836 13.0048 18.8052 13.1133 18.6951 13.2134L9.35565 21.6495C9.09699 21.8832 8.7781 22 8.39898 22C8.01986 22 7.6921 21.8748 7.4157 21.6245Z" fill="url(#paint0_linear_100_1013)"/>
<defs>
<linearGradient id="paint0_linear_100_1013" x1="6.32544" y1="35.3644" x2="26.8975" y2="32.4453" gradientUnits="userSpaceOnUse">
<stop stop-color="#8B3FFD"/>
<stop offset="1" stop-color="#FD3F9A" stop-opacity="0.83"/>
</linearGradient>
</defs>
</svg>
