<svg width="29" height="28" viewBox="0 0 29 28" fill="none" xmlns="http://www.w3.org/2000/svg">
<path fill-rule="evenodd" clip-rule="evenodd" d="M18.3038 0.0775485C17.8713 0.181924 18.0033 0.107832 11.0603 4.14546C5.02576 7.65486 5.02576 7.65486 3.77188 7.65546C2.35414 7.65612 2.04994 7.70513 1.53722 8.01541C0.889329 8.40745 0.432128 9.09564 0.329759 9.83306C0.298489 10.0586 0.284335 13.3359 0.294155 18.0904C0.31171 26.5756 0.296349 26.1068 0.574489 26.6437C0.85592 27.1868 1.48549 27.7132 2.07781 27.9005C2.37768 27.9953 2.92391 28 13.6936 28C24.5366 28 25.0065 27.9959 25.2852 27.899C26.2712 27.5559 26.9208 26.7767 27.0501 25.7816C27.0795 25.556 27.1042 24.5074 27.1051 23.4512C27.1068 21.531 27.1068 21.531 27.3017 21.4383C27.6304 21.2818 28.0123 20.8799 28.1832 20.5105C28.3412 20.1691 28.3412 20.1691 28.3578 17.9615C28.3763 15.4925 28.3631 15.375 28.0082 14.8524C27.8201 14.5756 27.4621 14.2759 27.235 14.2052C27.1163 14.1683 27.1163 14.1674 27.0938 11.939C27.0738 9.95923 27.0601 9.67983 26.9722 9.44359C26.628 8.51965 25.9345 7.90424 25.0222 7.71307C24.7204 7.64982 24.7204 7.64982 22.8552 4.3846C20.7792 0.750514 20.6914 0.624015 20.0104 0.290681C19.3949 -0.0106177 18.9165 -0.0703626 18.3038 0.0775485ZM19.255 1.33411C19.556 1.42337 20.0295 1.82006 19.9394 1.90757C19.9137 1.93249 17.6847 3.23609 14.9858 4.80446C10.0789 7.65606 10.0789 7.65606 8.84153 7.65431C7.7326 7.65278 7.61542 7.64412 7.71246 7.57085C7.9387 7.40011 18.3933 1.34632 18.536 1.30339C18.7671 1.23395 18.9423 1.2414 19.255 1.33411ZM20.9344 3.56734C21.1056 3.8636 21.2375 4.112 21.2275 4.11934C21.2176 4.12668 19.8432 4.92543 18.1734 5.89438C15.1374 7.65606 15.1374 7.65606 13.8971 7.65606C13.1379 7.65606 12.677 7.63646 12.7089 7.60552C12.7779 7.53849 20.5938 2.99815 20.6103 3.01534C20.6174 3.02268 20.7633 3.27108 20.9344 3.56734ZM22.6003 6.47869C23.26 7.62868 23.26 7.62868 21.8605 7.6433C21.0909 7.65135 19.8395 7.65135 19.0797 7.6433C17.6984 7.62868 17.6984 7.62868 19.783 6.41593C21.1391 5.62709 21.8804 5.22514 21.9041 5.26594C21.9242 5.30044 22.2374 5.84619 22.6003 6.47869ZM25.0496 9.01963C25.3214 9.14547 25.5888 9.42119 25.7188 9.70962C25.8072 9.90551 25.8194 10.1439 25.8344 11.9648C25.8511 14.0008 25.8511 14.0008 23.5851 14.0226C21.0624 14.047 21.077 14.0452 20.2768 14.4412C18.3798 15.38 17.6451 17.593 18.5852 19.5357C18.7932 19.9654 18.9103 20.1264 19.2827 20.494C19.782 20.9868 20.1368 21.2168 20.7438 21.441C21.1545 21.5927 21.1545 21.5927 23.4861 21.6202C25.8176 21.6477 25.8176 21.6477 25.8176 23.6738C25.8176 25.2394 25.8007 25.7478 25.7432 25.9101C25.6464 26.1837 25.3907 26.4704 25.1097 26.6205C24.885 26.7405 24.885 26.7405 13.6936 26.7405C2.87926 26.7405 2.49573 26.737 2.3102 26.6384C2.04144 26.4955 1.82655 26.2849 1.68798 26.0286C1.56959 25.8095 1.56959 25.8095 1.55275 18.006C1.54084 12.491 1.55352 10.1204 1.59603 9.92281C1.67777 9.54304 1.92146 9.22882 2.2679 9.05648C2.5512 8.91558 2.5512 8.91558 13.6906 8.91678C24.4251 8.91793 24.8381 8.92166 25.0496 9.01963ZM26.7228 15.3639C27.106 15.5549 27.1112 15.5906 27.0944 17.8965C27.0809 19.7498 27.07 19.9638 26.983 20.0916C26.7798 20.3901 26.7991 20.3881 24.0948 20.3881C21.632 20.3881 21.5878 20.3862 21.2309 20.2631C20.7826 20.1084 20.4579 19.9046 20.1491 19.5843C18.7368 18.1195 19.5475 15.6825 21.566 15.3246C21.7018 15.3005 22.8744 15.2779 24.1718 15.2744C26.3158 15.2687 26.5483 15.2769 26.7228 15.3639ZM21.414 16.7204C21.0025 16.929 20.7812 17.2634 20.752 17.7208C20.7229 18.1771 20.8433 18.4877 21.1555 18.762C21.5346 19.0952 21.9316 19.1755 22.4046 19.0146C22.9859 18.8169 23.3478 18.1806 23.2152 17.5893C23.0809 16.9903 22.6722 16.6372 22.0673 16.5976C21.753 16.5771 21.6635 16.5939 21.414 16.7204Z" fill="url(#paint0_linear_89_870)"/>
<defs>
<linearGradient id="paint0_linear_89_870" x1="0.291077" y1="14" x2="28.9377" y2="14" gradientUnits="userSpaceOnUse">
<stop stop-color="#8B3FFD" stop-opacity="0.9"/>
<stop offset="1" stop-color="#FD3F9A" stop-opacity="0.83"/>
</linearGradient>
</defs>
</svg>
