<svg width="22" height="23" viewBox="0 0 22 23" fill="none" xmlns="http://www.w3.org/2000/svg">
<path d="M12.3595 16.704C12.1798 16.5067 12.0935 16.2683 12.1007 15.9888C12.1079 15.7093 12.2016 15.4709 12.382 15.2735L14.9213 12.4865H4.89888C4.6442 12.4865 4.43056 12.3918 4.25798 12.2024C4.0854 12.013 3.9994 11.7789 4 11.5C4 11.2205 4.0863 10.986 4.25888 10.7966C4.43146 10.6072 4.6448 10.5128 4.89888 10.5135H14.9213L12.3595 7.70179C12.1798 7.50448 12.0899 7.27001 12.0899 6.99839C12.0899 6.72676 12.1798 6.49262 12.3595 6.29596C12.5393 6.09865 12.753 6 13.0004 6C13.2479 6 13.4613 6.09865 13.6404 6.29596L17.7528 10.8094C17.8427 10.9081 17.9065 11.0149 17.9443 11.13C17.982 11.2451 18.0006 11.3685 18 11.5C18 11.6315 17.9811 11.7549 17.9434 11.87C17.9056 11.9851 17.8421 12.0919 17.7528 12.1906L13.618 16.7287C13.4532 16.9096 13.2473 17 13.0004 17C12.7535 17 12.5399 16.9013 12.3595 16.704Z" fill="#A688AA"/>
</svg>
