<svg width="44" height="45" viewBox="0 0 44 45" fill="none" xmlns="http://www.w3.org/2000/svg">
<path d="M24.3162 32.435C23.9438 32.0583 23.7651 31.6031 23.78 31.0695C23.7948 30.5359 23.9891 30.0807 24.3627 29.704L29.6228 24.3834H8.86196C8.33441 24.3834 7.89188 24.2026 7.53439 23.841C7.17689 23.4794 6.99877 23.0324 7.00001 22.5C7.00001 21.9664 7.17875 21.5187 7.53625 21.1571C7.89375 20.7955 8.33565 20.6153 8.86196 20.6166H29.6228L24.3162 15.2489C23.9438 14.8722 23.7576 14.4246 23.7576 13.906C23.7576 13.3874 23.9438 12.9404 24.3162 12.565C24.6886 12.1883 25.1311 12 25.6438 12C26.1564 12 26.5983 12.1883 26.9695 12.565L35.4879 21.1816C35.6741 21.37 35.8063 21.574 35.8845 21.7937C35.9627 22.0135 36.0012 22.2489 36 22.5C36 22.7511 35.9609 22.9865 35.8827 23.2063C35.8045 23.426 35.6729 23.63 35.4879 23.8184L26.9229 32.4821C26.5816 32.8274 26.1552 33 25.6438 33C25.1324 33 24.6898 32.8117 24.3162 32.435Z" fill="#A688AA"/>
</svg>
