<svg width="37" height="28" viewBox="0 0 37 28" fill="none" xmlns="http://www.w3.org/2000/svg">
<mask id="path-1-inside-1_89_875" fill="white">
<path fill-rule="evenodd" clip-rule="evenodd" d="M29.403 0.600139C27.6548 1.31662 27.5389 1.37868 27.2668 1.74273C26.9314 2.1918 26.7907 3.0159 26.9638 3.51816C27.02 3.68138 27.0069 3.71689 26.8755 3.75574C26.4171 3.89139 25.9295 3.77007 24.6393 3.19936C23.3762 2.64065 22.6814 2.4149 21.9187 2.31562C20.8311 2.17413 19.6585 2.43803 18.5698 3.06924C18.1109 3.33532 18.1109 3.33532 17.4955 2.99456C16.4767 2.4304 15.8921 2.28408 14.6884 2.29225C13.8626 2.29786 13.488 2.34022 12.7476 2.51169C12.243 2.6285 11.4777 2.7439 11.047 2.76804C10.2637 2.81196 10.2637 2.81196 10.181 2.44924C10.1227 2.19406 9.99929 1.97431 9.76442 1.70792C9.43639 1.33586 9.40343 1.31958 7.84277 0.761486C5.96643 0.090558 5.68435 0.0568403 5.08073 0.431473C4.82879 0.587836 4.63873 0.78072 4.51219 1.00849C4.27902 1.42844 0.714844 13.5817 0.714844 13.9569C0.714844 14.5592 1.06037 15.2262 1.52644 15.5238C1.6817 15.6229 2.46987 15.9373 3.27793 16.2226C5.10981 16.8691 5.4926 16.8891 6.13136 16.3722C6.2831 16.2494 6.29015 16.2513 6.29015 16.4135C6.29015 16.5069 6.1025 16.9789 5.87313 17.4625C5.39867 18.4627 5.30184 18.9508 5.44341 19.6274C5.67772 20.7471 6.49016 21.5248 7.52088 21.6161C7.94863 21.654 7.94863 21.654 7.94863 22.3263C7.94863 22.8932 7.97785 23.0656 8.13516 23.4268C8.45648 24.1645 8.92833 24.5847 9.66971 24.7937C10.2023 24.9439 10.6053 24.9001 11.1385 24.6343C11.5054 24.4513 11.5054 24.4513 11.6537 24.7893C12.0998 25.8061 13.2812 26.3657 14.2952 26.0404C14.5198 25.9684 14.7113 25.9203 14.7208 25.9335C14.7303 25.9467 14.8182 26.1503 14.9161 26.3859C15.4182 27.5931 16.5634 28.2457 17.5977 27.914C18.0694 27.7626 18.6076 27.2614 18.8577 26.7403C18.9517 26.5446 19.0604 26.4003 19.0992 26.4197C19.8701 26.8049 20.096 26.8705 20.5221 26.8328C21.5474 26.742 22.3103 25.7872 22.3103 24.5947C22.3103 24.1551 22.3103 24.1551 22.7406 24.0668C23.9127 23.8263 24.6719 22.9258 24.7635 21.6672C24.7993 21.1757 24.8013 21.1714 24.9841 21.2281C25.3763 21.3498 26.2832 21.2869 26.6277 21.1142C27.4176 20.7183 27.9481 19.8712 28.0107 18.9057C28.046 18.3621 28.046 18.3621 28.301 18.4221C29.3119 18.6597 30.1279 18.2178 30.5616 17.1977C30.7157 16.8352 30.7456 16.6489 30.755 15.9926C30.7655 15.2533 30.8549 14.9522 30.9456 15.3509C31.0138 15.651 31.5284 16.2339 31.8506 16.3761C32.4146 16.6252 32.7384 16.5624 34.4174 15.879C36.0731 15.2051 36.3463 15.031 36.6362 14.4648C36.7761 14.1916 36.8111 14.0177 36.807 13.6152C36.8023 13.1496 36.6404 12.6311 34.7856 7.14363C33.6766 3.86266 32.7193 1.07164 32.6583 0.941288C32.5045 0.613221 32.034 0.186494 31.7066 0.0783328C31.2056 -0.0873746 30.9259 -0.0239887 29.403 0.600139ZM31.6566 1.25331C31.7956 1.38896 32.2905 2.77956 33.8483 7.41135C34.955 10.702 35.8598 13.5053 35.8589 13.641C35.8571 13.9108 35.7008 14.1706 35.4572 14.3081C35.3713 14.3567 34.6885 14.6447 33.9399 14.9482C32.447 15.5534 32.2379 15.5773 31.969 15.1726C31.8978 15.0655 30.9316 12.2797 29.8219 8.98191C27.9072 3.29218 27.8081 2.97144 27.8807 2.70247C27.9228 2.54666 28.0284 2.36771 28.1155 2.30487C28.4157 2.08824 30.9562 1.08667 31.2163 1.08239C31.3905 1.07951 31.5366 1.13627 31.6566 1.25331ZM7.37275 1.7115C8.11645 1.97423 8.81478 2.23938 8.92459 2.30074C9.15473 2.42931 9.35177 2.88002 9.28621 3.12788C9.24373 3.28845 8.11892 7.15477 6.56363 12.4861C6.17632 13.8137 5.80757 15.0339 5.74427 15.1974C5.63128 15.4894 5.35661 15.7177 5.11835 15.7177C5.05222 15.7177 4.34402 15.4879 3.54456 15.2069C1.9532 14.6478 1.70287 14.4837 1.70287 13.9992C1.70287 13.869 2.49824 11.0399 3.47039 7.71232C5.03775 2.34739 5.26168 1.63791 5.44758 1.44799C5.56332 1.32978 5.73855 1.23385 5.83891 1.23385C5.93877 1.23385 6.62905 1.44877 7.37275 1.7115ZM16.3812 3.60662C16.6718 3.72623 16.9795 3.87465 17.065 3.93648C17.218 4.04713 17.2132 4.05578 16.7484 4.50049C16.0244 5.1933 13.4734 8.07854 13.2156 8.49616C12.8571 9.07699 12.8135 9.28187 12.9842 9.58408C13.2087 9.98161 13.906 10.6976 14.3619 10.9989C14.9325 11.3759 15.6646 11.5476 16.4468 11.4878C17.1573 11.4335 17.8888 11.2189 19.2144 10.6757C20.5306 10.1364 21.0577 10.004 21.705 10.0497C22.1601 10.082 22.295 10.1291 22.7115 10.4011C22.9761 10.5739 24.0126 11.1733 25.0149 11.7333C29.2406 14.0938 30.0687 14.9043 29.7867 16.4032C29.723 16.7418 29.6417 16.9133 29.4381 17.1379C29.2088 17.3909 29.1287 17.4308 28.8509 17.4308C28.4812 17.4308 28.3506 17.3595 24.604 15.1098C23.0668 14.1868 22.1308 13.6687 21.9994 13.6681C21.8704 13.6674 21.746 13.7328 21.6642 13.8444C21.5072 14.0583 21.4996 14.2271 21.6372 14.4439C21.694 14.5333 22.6387 15.142 23.7368 15.7967C26.6531 17.5355 26.6527 17.5352 26.8707 17.9456C27.0091 18.2062 27.059 18.407 27.059 18.7033C27.059 19.6105 26.4805 20.2453 25.654 20.2453C25.3283 20.2453 25.1706 20.1866 24.6193 19.8604C24.2616 19.6488 23.1032 18.963 22.0453 18.3364C20.9873 17.7098 20.0425 17.1972 19.9457 17.1972C19.6017 17.1972 19.3869 17.6231 19.5555 17.9708C19.593 18.0481 20.4205 18.5802 21.3944 19.1532C23.1944 20.2125 23.527 20.4666 23.697 20.913C23.8112 21.2131 23.8211 21.7754 23.7173 22.0785C23.5406 22.5945 22.9435 23.0325 22.4125 23.0357C22.0784 23.0378 21.634 22.8111 19.6025 21.6025C18.8314 21.1437 18.1247 20.7366 18.0322 20.6978C17.6592 20.5413 17.2962 20.9436 17.4383 21.3561C17.4738 21.4592 17.6276 21.6256 17.7802 21.726C18.0574 21.9083 18.0574 21.9083 17.5104 21.9083C16.9634 21.9083 16.9634 21.9083 16.93 21.3953C16.8891 20.766 16.5594 20.029 16.1645 19.6838C15.6668 19.2488 15.2807 19.1055 14.6074 19.1054C13.9971 19.1054 13.9971 19.1054 13.964 18.7813C13.8953 18.1087 13.3631 17.2885 12.7865 16.9669C12.4185 16.7615 11.8235 16.6425 11.4431 16.6982C11.1097 16.747 11.1097 16.747 11.0623 16.4199C10.9558 15.6855 10.3041 14.7793 9.65665 14.4655C9.11436 14.2027 8.4358 14.2155 7.87827 14.4991C7.64552 14.6175 7.38348 14.7885 7.29604 14.8792C7.13703 15.044 7.13703 15.044 7.13703 14.6107C7.13703 13.9972 7.32434 13.2803 8.78027 8.32002C10.0718 3.92036 10.0718 3.92036 10.8804 3.86453C11.3252 3.83385 12.1813 3.70349 12.7829 3.57485C13.7403 3.37013 14.0001 3.34397 14.8648 3.36507C15.7419 3.38641 15.9122 3.41358 16.3812 3.60662ZM22.519 3.50049C22.8426 3.59082 23.6139 3.88828 24.233 4.1616C25.6138 4.77109 26.3233 4.94863 26.8824 4.82474C27.0978 4.77701 27.2957 4.738 27.3221 4.738C27.3486 4.738 28.0786 6.84212 28.9443 9.41386C30.0994 12.845 30.4975 14.1128 30.4399 14.1764C30.3823 14.2399 30.2322 14.1284 29.8758 13.7575C29.0536 12.9017 28.0815 12.2542 25.1661 10.6208C24.1971 10.0779 23.166 9.49414 22.8749 9.3236C21.9194 8.76395 21.1674 8.81005 19.2757 9.54437C16.9714 10.4388 16.399 10.5787 15.6936 10.42C15.1621 10.3005 14.5698 9.94913 14.2011 9.53455C13.9044 9.20096 13.9044 9.20096 14.4991 8.46851C15.1746 7.63647 17.0699 5.57378 17.6525 5.03663C19.2621 3.55243 20.8776 3.04253 22.519 3.50049ZM9.27414 15.4332C9.55058 15.5609 10.0101 16.1068 10.0727 16.3818C10.1867 16.8831 10.0648 17.2906 9.38918 18.6682C8.55952 20.3598 8.42225 20.5067 7.67191 20.5067C7.22109 20.5067 7.1309 20.4811 6.90153 20.288C6.5601 20.0007 6.36059 19.5577 6.36129 19.0887C6.36178 18.7679 6.456 18.5198 7.03329 17.3183C7.40253 16.5497 7.75956 15.8527 7.82661 15.7694C8.13537 15.3859 8.82494 15.2257 9.27414 15.4332ZM12.2828 17.8946C12.8106 18.1917 13.1204 18.8097 13.0355 19.3958C12.9948 19.6761 11.5596 22.75 11.2201 23.2838C11.0461 23.5575 10.5491 23.8165 10.2023 23.8144C9.87169 23.8124 9.41981 23.5971 9.20604 23.3397C8.98952 23.0792 8.90123 22.7804 8.90229 22.3121C8.90307 21.9456 8.98183 21.7464 9.75432 20.1563C10.2225 19.1926 10.6747 18.3207 10.7592 18.2187C11.1321 17.7682 11.8043 17.6252 12.2828 17.8946ZM15.2389 20.2661C15.7004 20.5321 15.9789 21.0346 15.9789 21.601C15.9789 21.9544 15.9097 22.1446 15.3973 23.2011C15.0775 23.8606 14.7179 24.5134 14.5984 24.6518C13.984 25.3629 12.8492 25.1321 12.4843 24.2218C12.2515 23.6412 12.3238 23.3157 12.9905 21.9425C13.3116 21.2813 13.6265 20.6753 13.6902 20.5959C14.012 20.1951 14.8179 20.0235 15.2389 20.2661ZM20.7714 23.5203C21.1194 23.7605 21.3943 24.2391 21.3913 24.6C21.3889 24.9048 21.1445 25.4142 20.9138 25.5954C20.6424 25.8087 20.1935 25.8127 19.7798 25.6055C19.5361 25.4835 19.4829 25.4232 19.5236 25.3152C19.9148 24.2764 19.8235 23.4023 19.254 22.7341C19.0299 22.4709 19.0324 22.4717 19.7344 22.8807C20.1226 23.1068 20.5892 23.3946 20.7714 23.5203ZM18.3125 23.2631C18.9642 23.7579 18.9772 24.1653 18.3832 25.4785C17.8443 26.6697 17.5948 26.9309 16.9962 26.9309C16.4043 26.9309 15.7362 26.2172 15.6357 25.4773C15.5928 25.1617 15.6214 25.0512 15.9152 24.3982C16.4239 23.2675 16.8049 22.9361 17.5468 22.979C17.8903 22.9988 18.0351 23.0526 18.3125 23.2631Z"/>
</mask>
<path fill-rule="evenodd" clip-rule="evenodd" d="M29.403 0.600139C27.6548 1.31662 27.5389 1.37868 27.2668 1.74273C26.9314 2.1918 26.7907 3.0159 26.9638 3.51816C27.02 3.68138 27.0069 3.71689 26.8755 3.75574C26.4171 3.89139 25.9295 3.77007 24.6393 3.19936C23.3762 2.64065 22.6814 2.4149 21.9187 2.31562C20.8311 2.17413 19.6585 2.43803 18.5698 3.06924C18.1109 3.33532 18.1109 3.33532 17.4955 2.99456C16.4767 2.4304 15.8921 2.28408 14.6884 2.29225C13.8626 2.29786 13.488 2.34022 12.7476 2.51169C12.243 2.6285 11.4777 2.7439 11.047 2.76804C10.2637 2.81196 10.2637 2.81196 10.181 2.44924C10.1227 2.19406 9.99929 1.97431 9.76442 1.70792C9.43639 1.33586 9.40343 1.31958 7.84277 0.761486C5.96643 0.090558 5.68435 0.0568403 5.08073 0.431473C4.82879 0.587836 4.63873 0.78072 4.51219 1.00849C4.27902 1.42844 0.714844 13.5817 0.714844 13.9569C0.714844 14.5592 1.06037 15.2262 1.52644 15.5238C1.6817 15.6229 2.46987 15.9373 3.27793 16.2226C5.10981 16.8691 5.4926 16.8891 6.13136 16.3722C6.2831 16.2494 6.29015 16.2513 6.29015 16.4135C6.29015 16.5069 6.1025 16.9789 5.87313 17.4625C5.39867 18.4627 5.30184 18.9508 5.44341 19.6274C5.67772 20.7471 6.49016 21.5248 7.52088 21.6161C7.94863 21.654 7.94863 21.654 7.94863 22.3263C7.94863 22.8932 7.97785 23.0656 8.13516 23.4268C8.45648 24.1645 8.92833 24.5847 9.66971 24.7937C10.2023 24.9439 10.6053 24.9001 11.1385 24.6343C11.5054 24.4513 11.5054 24.4513 11.6537 24.7893C12.0998 25.8061 13.2812 26.3657 14.2952 26.0404C14.5198 25.9684 14.7113 25.9203 14.7208 25.9335C14.7303 25.9467 14.8182 26.1503 14.9161 26.3859C15.4182 27.5931 16.5634 28.2457 17.5977 27.914C18.0694 27.7626 18.6076 27.2614 18.8577 26.7403C18.9517 26.5446 19.0604 26.4003 19.0992 26.4197C19.8701 26.8049 20.096 26.8705 20.5221 26.8328C21.5474 26.742 22.3103 25.7872 22.3103 24.5947C22.3103 24.1551 22.3103 24.1551 22.7406 24.0668C23.9127 23.8263 24.6719 22.9258 24.7635 21.6672C24.7993 21.1757 24.8013 21.1714 24.9841 21.2281C25.3763 21.3498 26.2832 21.2869 26.6277 21.1142C27.4176 20.7183 27.9481 19.8712 28.0107 18.9057C28.046 18.3621 28.046 18.3621 28.301 18.4221C29.3119 18.6597 30.1279 18.2178 30.5616 17.1977C30.7157 16.8352 30.7456 16.6489 30.755 15.9926C30.7655 15.2533 30.8549 14.9522 30.9456 15.3509C31.0138 15.651 31.5284 16.2339 31.8506 16.3761C32.4146 16.6252 32.7384 16.5624 34.4174 15.879C36.0731 15.2051 36.3463 15.031 36.6362 14.4648C36.7761 14.1916 36.8111 14.0177 36.807 13.6152C36.8023 13.1496 36.6404 12.6311 34.7856 7.14363C33.6766 3.86266 32.7193 1.07164 32.6583 0.941288C32.5045 0.613221 32.034 0.186494 31.7066 0.0783328C31.2056 -0.0873746 30.9259 -0.0239887 29.403 0.600139ZM31.6566 1.25331C31.7956 1.38896 32.2905 2.77956 33.8483 7.41135C34.955 10.702 35.8598 13.5053 35.8589 13.641C35.8571 13.9108 35.7008 14.1706 35.4572 14.3081C35.3713 14.3567 34.6885 14.6447 33.9399 14.9482C32.447 15.5534 32.2379 15.5773 31.969 15.1726C31.8978 15.0655 30.9316 12.2797 29.8219 8.98191C27.9072 3.29218 27.8081 2.97144 27.8807 2.70247C27.9228 2.54666 28.0284 2.36771 28.1155 2.30487C28.4157 2.08824 30.9562 1.08667 31.2163 1.08239C31.3905 1.07951 31.5366 1.13627 31.6566 1.25331ZM7.37275 1.7115C8.11645 1.97423 8.81478 2.23938 8.92459 2.30074C9.15473 2.42931 9.35177 2.88002 9.28621 3.12788C9.24373 3.28845 8.11892 7.15477 6.56363 12.4861C6.17632 13.8137 5.80757 15.0339 5.74427 15.1974C5.63128 15.4894 5.35661 15.7177 5.11835 15.7177C5.05222 15.7177 4.34402 15.4879 3.54456 15.2069C1.9532 14.6478 1.70287 14.4837 1.70287 13.9992C1.70287 13.869 2.49824 11.0399 3.47039 7.71232C5.03775 2.34739 5.26168 1.63791 5.44758 1.44799C5.56332 1.32978 5.73855 1.23385 5.83891 1.23385C5.93877 1.23385 6.62905 1.44877 7.37275 1.7115ZM16.3812 3.60662C16.6718 3.72623 16.9795 3.87465 17.065 3.93648C17.218 4.04713 17.2132 4.05578 16.7484 4.50049C16.0244 5.1933 13.4734 8.07854 13.2156 8.49616C12.8571 9.07699 12.8135 9.28187 12.9842 9.58408C13.2087 9.98161 13.906 10.6976 14.3619 10.9989C14.9325 11.3759 15.6646 11.5476 16.4468 11.4878C17.1573 11.4335 17.8888 11.2189 19.2144 10.6757C20.5306 10.1364 21.0577 10.004 21.705 10.0497C22.1601 10.082 22.295 10.1291 22.7115 10.4011C22.9761 10.5739 24.0126 11.1733 25.0149 11.7333C29.2406 14.0938 30.0687 14.9043 29.7867 16.4032C29.723 16.7418 29.6417 16.9133 29.4381 17.1379C29.2088 17.3909 29.1287 17.4308 28.8509 17.4308C28.4812 17.4308 28.3506 17.3595 24.604 15.1098C23.0668 14.1868 22.1308 13.6687 21.9994 13.6681C21.8704 13.6674 21.746 13.7328 21.6642 13.8444C21.5072 14.0583 21.4996 14.2271 21.6372 14.4439C21.694 14.5333 22.6387 15.142 23.7368 15.7967C26.6531 17.5355 26.6527 17.5352 26.8707 17.9456C27.0091 18.2062 27.059 18.407 27.059 18.7033C27.059 19.6105 26.4805 20.2453 25.654 20.2453C25.3283 20.2453 25.1706 20.1866 24.6193 19.8604C24.2616 19.6488 23.1032 18.963 22.0453 18.3364C20.9873 17.7098 20.0425 17.1972 19.9457 17.1972C19.6017 17.1972 19.3869 17.6231 19.5555 17.9708C19.593 18.0481 20.4205 18.5802 21.3944 19.1532C23.1944 20.2125 23.527 20.4666 23.697 20.913C23.8112 21.2131 23.8211 21.7754 23.7173 22.0785C23.5406 22.5945 22.9435 23.0325 22.4125 23.0357C22.0784 23.0378 21.634 22.8111 19.6025 21.6025C18.8314 21.1437 18.1247 20.7366 18.0322 20.6978C17.6592 20.5413 17.2962 20.9436 17.4383 21.3561C17.4738 21.4592 17.6276 21.6256 17.7802 21.726C18.0574 21.9083 18.0574 21.9083 17.5104 21.9083C16.9634 21.9083 16.9634 21.9083 16.93 21.3953C16.8891 20.766 16.5594 20.029 16.1645 19.6838C15.6668 19.2488 15.2807 19.1055 14.6074 19.1054C13.9971 19.1054 13.9971 19.1054 13.964 18.7813C13.8953 18.1087 13.3631 17.2885 12.7865 16.9669C12.4185 16.7615 11.8235 16.6425 11.4431 16.6982C11.1097 16.747 11.1097 16.747 11.0623 16.4199C10.9558 15.6855 10.3041 14.7793 9.65665 14.4655C9.11436 14.2027 8.4358 14.2155 7.87827 14.4991C7.64552 14.6175 7.38348 14.7885 7.29604 14.8792C7.13703 15.044 7.13703 15.044 7.13703 14.6107C7.13703 13.9972 7.32434 13.2803 8.78027 8.32002C10.0718 3.92036 10.0718 3.92036 10.8804 3.86453C11.3252 3.83385 12.1813 3.70349 12.7829 3.57485C13.7403 3.37013 14.0001 3.34397 14.8648 3.36507C15.7419 3.38641 15.9122 3.41358 16.3812 3.60662ZM22.519 3.50049C22.8426 3.59082 23.6139 3.88828 24.233 4.1616C25.6138 4.77109 26.3233 4.94863 26.8824 4.82474C27.0978 4.77701 27.2957 4.738 27.3221 4.738C27.3486 4.738 28.0786 6.84212 28.9443 9.41386C30.0994 12.845 30.4975 14.1128 30.4399 14.1764C30.3823 14.2399 30.2322 14.1284 29.8758 13.7575C29.0536 12.9017 28.0815 12.2542 25.1661 10.6208C24.1971 10.0779 23.166 9.49414 22.8749 9.3236C21.9194 8.76395 21.1674 8.81005 19.2757 9.54437C16.9714 10.4388 16.399 10.5787 15.6936 10.42C15.1621 10.3005 14.5698 9.94913 14.2011 9.53455C13.9044 9.20096 13.9044 9.20096 14.4991 8.46851C15.1746 7.63647 17.0699 5.57378 17.6525 5.03663C19.2621 3.55243 20.8776 3.04253 22.519 3.50049ZM9.27414 15.4332C9.55058 15.5609 10.0101 16.1068 10.0727 16.3818C10.1867 16.8831 10.0648 17.2906 9.38918 18.6682C8.55952 20.3598 8.42225 20.5067 7.67191 20.5067C7.22109 20.5067 7.1309 20.4811 6.90153 20.288C6.5601 20.0007 6.36059 19.5577 6.36129 19.0887C6.36178 18.7679 6.456 18.5198 7.03329 17.3183C7.40253 16.5497 7.75956 15.8527 7.82661 15.7694C8.13537 15.3859 8.82494 15.2257 9.27414 15.4332ZM12.2828 17.8946C12.8106 18.1917 13.1204 18.8097 13.0355 19.3958C12.9948 19.6761 11.5596 22.75 11.2201 23.2838C11.0461 23.5575 10.5491 23.8165 10.2023 23.8144C9.87169 23.8124 9.41981 23.5971 9.20604 23.3397C8.98952 23.0792 8.90123 22.7804 8.90229 22.3121C8.90307 21.9456 8.98183 21.7464 9.75432 20.1563C10.2225 19.1926 10.6747 18.3207 10.7592 18.2187C11.1321 17.7682 11.8043 17.6252 12.2828 17.8946ZM15.2389 20.2661C15.7004 20.5321 15.9789 21.0346 15.9789 21.601C15.9789 21.9544 15.9097 22.1446 15.3973 23.2011C15.0775 23.8606 14.7179 24.5134 14.5984 24.6518C13.984 25.3629 12.8492 25.1321 12.4843 24.2218C12.2515 23.6412 12.3238 23.3157 12.9905 21.9425C13.3116 21.2813 13.6265 20.6753 13.6902 20.5959C14.012 20.1951 14.8179 20.0235 15.2389 20.2661ZM20.7714 23.5203C21.1194 23.7605 21.3943 24.2391 21.3913 24.6C21.3889 24.9048 21.1445 25.4142 20.9138 25.5954C20.6424 25.8087 20.1935 25.8127 19.7798 25.6055C19.5361 25.4835 19.4829 25.4232 19.5236 25.3152C19.9148 24.2764 19.8235 23.4023 19.254 22.7341C19.0299 22.4709 19.0324 22.4717 19.7344 22.8807C20.1226 23.1068 20.5892 23.3946 20.7714 23.5203ZM18.3125 23.2631C18.9642 23.7579 18.9772 24.1653 18.3832 25.4785C17.8443 26.6697 17.5948 26.9309 16.9962 26.9309C16.4043 26.9309 15.7362 26.2172 15.6357 25.4773C15.5928 25.1617 15.6214 25.0512 15.9152 24.3982C16.4239 23.2675 16.8049 22.9361 17.5468 22.979C17.8903 22.9988 18.0351 23.0526 18.3125 23.2631Z" fill="url(#paint0_linear_89_875)" stroke="url(#paint1_linear_89_875)" stroke-width="92" mask="url(#path-1-inside-1_89_875)"/>
<defs>
<linearGradient id="paint0_linear_89_875" x1="0.714844" y1="14" x2="37.5462" y2="14" gradientUnits="userSpaceOnUse">
<stop stop-color="#8B3FFD" stop-opacity="0.9"/>
<stop offset="1" stop-color="#FD3F9A" stop-opacity="0.83"/>
</linearGradient>
<linearGradient id="paint1_linear_89_875" x1="0.714844" y1="14" x2="37.5462" y2="14" gradientUnits="userSpaceOnUse">
<stop stop-color="#8B3FFD" stop-opacity="0.9"/>
<stop offset="1" stop-color="#FD3F9A" stop-opacity="0.83"/>
</linearGradient>
</defs>
</svg>
