<svg width="173" height="28" viewBox="0 0 173 28" fill="none" xmlns="http://www.w3.org/2000/svg">
<g clip-path="url(#clip0_89_876)">
<path d="M23.0127 10.5289C22.9993 10.384 22.8757 10.2732 22.7271 10.2732H10.9749C10.8197 10.2732 10.6931 10.3982 10.6931 10.5516L10.6836 14.8107C10.6836 14.966 10.811 15.092 10.9682 15.092H16.3594C16.5817 15.092 16.7101 15.343 16.5769 15.5201C15.3703 17.1292 13.5358 18.0526 11.5423 18.0526C8.06131 18.0526 5.22821 15.1914 5.22821 11.6749C5.22821 8.1583 8.06131 5.29712 11.5423 5.29712C13.3633 5.29712 15.1048 6.10499 16.2971 7.48018C16.3919 7.59004 16.5587 7.6052 16.6756 7.51901L20.378 4.78569C20.5525 4.65783 20.5822 4.41253 20.4451 4.24584C19.4532 3.03261 18.2168 2.02111 16.8386 1.29942C15.192 0.436612 13.4103 0 11.5423 0C5.17837 0 0 5.23745 0 11.6749C0 18.1123 5.17837 23.3507 11.5423 23.3507C13.4103 23.3507 15.192 22.9131 16.8386 22.0513C18.4104 21.2282 19.7972 20.0283 20.8486 18.5821C21.6259 17.5109 22.2125 16.3261 22.591 15.0598C22.9188 13.965 23.0846 12.8256 23.0846 11.6749C23.0846 11.3377 23.0415 10.832 23.0127 10.5289Z" fill="url(#paint0_linear_89_876)"/>
<path d="M43.1588 5.75838H38.406C38.2555 5.75838 38.1338 5.87866 38.1338 6.02641V6.53879C38.1338 6.64297 38.0217 6.70548 37.9306 6.65434C36.5678 5.89382 35.0285 5.49414 33.449 5.49414C28.47 5.49414 24.4197 9.44164 24.4197 14.2936C24.4197 19.1466 28.47 23.0941 33.449 23.0941C35.0285 23.0941 36.5687 22.6934 37.9306 21.9329C38.0217 21.8818 38.1338 21.9452 38.1338 22.0485V22.2966C38.1338 22.4443 38.2555 22.5646 38.406 22.5646H43.1588C43.3084 22.5646 43.4301 22.4443 43.4301 22.2966V6.02641C43.4301 5.87866 43.3084 5.75838 43.1588 5.75838ZM37.2875 14.9528C37.2875 15.3137 36.9923 15.6054 36.6272 15.6054L34.6902 15.5201C34.5368 15.5201 34.2982 15.7332 34.2982 15.8838L34.3912 17.9513C34.3912 18.2364 34.1564 18.4684 33.8698 18.4684L32.2596 18.4665C31.9721 18.4665 31.7382 18.2364 31.7382 17.9513L31.8255 15.8999C31.8255 15.7474 31.6031 15.5428 31.4488 15.5428L29.5022 15.6054C29.1371 15.6054 28.8419 15.3137 28.8419 14.9528V13.6354C28.8419 13.2745 29.1371 12.9828 29.5022 12.9828L31.4718 13.0378C31.628 13.0378 31.8092 12.8502 31.8092 12.6959L31.7382 10.6909C31.7382 10.3774 31.997 10.1198 32.3162 10.1198H33.8698C34.1564 10.1198 34.3912 10.3518 34.3912 10.6369L34.3135 12.6807C34.3135 12.8332 34.5273 13.0681 34.6825 13.0681L36.6272 12.9828C36.9923 12.9828 37.2875 13.2745 37.2875 13.6354V14.9528Z" fill="url(#paint1_linear_89_876)"/>
<path d="M68.6616 7.25086H68.6606C68.5437 7.13531 68.4143 7.02261 68.2782 6.91748C68.2504 6.8957 65.4643 4.72684 62.2564 5.80843C61.713 5.95523 61.1504 6.2261 60.63 6.59168C60.2274 6.87581 59.8747 7.19877 59.5911 7.54256C59.4856 7.67042 59.292 7.67705 59.1789 7.55488C59.086 7.45448 58.9882 7.35315 58.8847 7.25086C58.7668 7.13531 58.6374 7.02261 58.5013 6.91748C58.463 6.88717 54.7337 3.99474 50.9029 6.6002C50.8138 6.66082 50.6921 6.59641 50.6921 6.48939V6.03573C50.6921 5.88798 50.5704 5.7677 50.4199 5.7677H45.667C45.5175 5.7677 45.3958 5.88798 45.3958 6.03573V22.305C45.3958 22.4537 45.5175 22.574 45.667 22.574H50.739C50.8895 22.574 51.0112 22.4537 51.0112 22.305V13.1124C51.0112 12.475 51.0112 11.6814 51.2863 11.0999C51.5269 10.5648 52.285 10.2323 53.2635 10.2323C53.7907 10.2323 54.2009 10.3517 54.5191 10.5979C54.7136 10.7485 54.8746 10.9512 54.9964 11.1965C55.2609 11.7742 55.2963 12.4893 55.2963 13.1124L55.3078 22.3059C55.3078 22.4537 55.4296 22.574 55.58 22.574H60.5159C60.6664 22.574 60.7881 22.4537 60.7881 22.3059V13.1124C60.7881 12.475 60.7881 11.6814 61.0632 11.0999C61.3038 10.5648 62.0609 10.2323 63.0404 10.2323C63.5676 10.2323 63.9778 10.3517 64.296 10.5979C64.4905 10.7485 64.6515 10.9512 64.7733 11.1965C65.0378 11.7742 65.0732 12.4893 65.0732 13.1124V22.305C65.0732 22.4537 65.195 22.574 65.3445 22.574H70.4165C70.566 22.574 70.6877 22.4537 70.6877 22.305V12.8473C70.6877 10.3706 70.3954 8.97458 68.6616 7.25086Z" fill="url(#paint2_linear_89_876)"/>
<path d="M89.7268 11.816C89.5361 11.1843 89.2697 10.5705 88.9333 9.98903L88.9361 9.98808L88.7694 9.71532C88.7282 9.64997 88.686 9.58462 88.6429 9.52022L88.546 9.37531C88.4962 9.30144 88.4445 9.22851 88.3898 9.15842L88.3802 9.14611C88.3141 9.05708 88.2461 8.96995 88.1771 8.88377L88.1215 8.81557C88.062 8.7436 88.0017 8.67256 87.9413 8.60248L87.8943 8.54755L87.7918 8.63468L87.879 8.53239C87.7851 8.42537 87.6825 8.3174 87.5694 8.20091L87.5138 8.14692C87.4439 8.07589 87.372 8.00675 87.2991 7.93856L87.2752 7.91678C87.186 7.83154 87.0931 7.75009 86.9982 7.67053L86.9254 7.60992C86.7988 7.50479 86.679 7.41008 86.5564 7.31727C86.5276 7.29548 86.4979 7.27465 86.4691 7.25381L86.4442 7.23582C86.3014 7.13258 86.1529 7.03124 85.9957 6.93085L85.9775 6.91854C85.8289 6.82667 85.5807 6.68082 85.4273 6.59652C85.3871 6.57474 85.3459 6.55296 85.3027 6.53023L85.2318 6.64388L85.2893 6.5236L85.2654 6.51129C85.1954 6.4753 85.1254 6.44025 85.0478 6.40332L85.0085 6.38437C84.8523 6.3105 84.697 6.24231 84.5513 6.18264L84.5063 6.16465C84.4162 6.12866 84.3271 6.09362 84.2245 6.05668C84.191 6.04342 84.1565 6.03205 84.1229 6.01974C84.0127 5.98091 83.9006 5.94397 83.7827 5.90704L83.7626 5.90135C83.6466 5.86537 83.5201 5.83032 83.3753 5.79339L83.2642 5.76497C83.0111 5.70341 82.7524 5.65227 82.4946 5.61154L82.3862 5.59544C82.1217 5.55756 81.8505 5.53104 81.5764 5.51589L81.4777 5.51115C81.3205 5.50357 81.1892 5.50073 81.0646 5.50073C80.939 5.50073 80.802 5.50452 80.6458 5.51115C80.6132 5.5121 80.5806 5.51494 80.547 5.51683L80.5231 5.51778C80.4205 5.52346 80.3189 5.53199 80.2173 5.54051L80.1857 5.54335C80.156 5.54619 80.1263 5.54903 80.0956 5.55188C79.948 5.56703 79.8186 5.58313 79.6998 5.60018L79.696 5.60112C79.694 5.60112 79.6912 5.60207 79.6892 5.60207L79.6682 5.60491C79.5503 5.62291 79.3567 5.65795 79.2397 5.68163L79.1717 5.69583C79.0739 5.71572 78.9771 5.73751 78.8803 5.76118L78.8497 5.76876C78.8209 5.77539 78.7931 5.78202 78.7653 5.7896C78.6359 5.82275 78.5075 5.85779 78.3781 5.89662C78.2516 5.9345 78.126 5.97712 78.0015 6.02069C77.9737 6.03111 77.9449 6.04058 77.9171 6.051L77.8912 6.06047C77.7992 6.09456 77.7082 6.1296 77.6181 6.16559L77.5932 6.17601C77.5654 6.18738 77.5366 6.1978 77.5088 6.21011C77.3881 6.2603 77.2683 6.3124 77.1485 6.36922C77.0306 6.42415 76.9146 6.48287 76.7996 6.54254C76.7718 6.55769 76.745 6.5719 76.7181 6.58611L76.6961 6.59842C76.6117 6.64388 76.5284 6.69029 76.445 6.73954L76.3453 6.79731C76.2341 6.86361 76.1239 6.9318 76.0166 7.00283C74.9402 7.71126 74.0154 8.65741 73.3416 9.73805C73.2735 9.84696 73.2093 9.95683 73.1461 10.0686L73.0675 10.2116C73.0521 10.2391 73.0368 10.2665 73.0224 10.294C73.0081 10.3205 72.9946 10.348 72.9812 10.3754L72.9477 10.4427C72.9343 10.4692 72.9199 10.4967 72.9065 10.5241C72.8499 10.6397 72.7953 10.7562 72.7445 10.8746C72.6554 11.0791 72.572 11.2989 72.4886 11.5451C72.2356 12.2933 72.087 13.068 72.0458 13.8475C72.0381 13.9971 72.0343 14.1496 72.0343 14.3002C72.0343 14.4518 72.0381 14.6042 72.0458 14.7529C72.0688 15.1971 72.1273 15.6413 72.2174 16.0741C72.248 16.2181 72.2825 16.3611 72.319 16.4994C72.363 16.668 72.4167 16.8451 72.4886 17.0553C72.6161 17.4332 72.7675 17.7988 72.9381 18.1407C72.9525 18.1691 72.9668 18.1956 72.9812 18.2231L73.0081 18.2733C73.055 18.3642 73.1029 18.4551 73.1537 18.5451L73.1767 18.5877C73.2304 18.6805 73.285 18.7715 73.3406 18.8624C74.0144 19.943 74.9402 20.8892 76.0166 21.5976C76.1239 21.6686 76.2341 21.7368 76.3443 21.8031L76.445 21.8618C76.5274 21.9101 76.6117 21.9566 76.6961 22.002L76.7181 22.0143C76.745 22.0285 76.7718 22.0437 76.7986 22.0579C76.9136 22.1176 77.0296 22.1763 77.137 22.2255L77.1504 22.2322C77.2683 22.288 77.3881 22.3401 77.5088 22.3903C77.5366 22.4026 77.5644 22.414 77.5922 22.4244L77.6171 22.4348C77.7072 22.4708 77.7983 22.5059 77.8903 22.54L77.9123 22.5475C77.942 22.5589 77.9717 22.5693 78.0015 22.5797C78.1251 22.6233 78.2506 22.6659 78.3791 22.7048C78.4941 22.7398 78.6206 22.7739 78.7644 22.8108C78.7922 22.8184 78.8209 22.825 78.8487 22.8317L78.8794 22.8393C78.9762 22.8629 79.0739 22.8847 79.1707 22.9046L79.2886 22.9292C79.3979 22.951 79.5071 22.9709 79.6174 22.9879L79.6892 22.9984C79.6912 22.9993 79.6931 22.9993 79.695 22.9993L79.6988 23.0003C79.8177 23.0173 79.948 23.0334 80.0956 23.0486C80.1253 23.0523 80.155 23.0542 80.1847 23.0571L80.2164 23.0599C80.318 23.0694 80.4205 23.077 80.5221 23.0827L80.5528 23.0845C80.5834 23.0864 80.6141 23.0883 80.6458 23.0893C80.801 23.0969 80.9381 23.0997 81.0646 23.0997C81.1882 23.0997 81.3195 23.0969 81.4815 23.0893L81.5812 23.0845C81.8505 23.0694 82.1208 23.0429 82.3958 23.004L82.4936 22.9889C82.7514 22.9491 83.0111 22.897 83.2709 22.8345L83.3734 22.808C83.5191 22.7701 83.6466 22.7351 83.7683 22.6981L83.7884 22.6915C83.9015 22.6565 84.0137 22.6186 84.1248 22.5797L84.2351 22.5409C84.3261 22.5068 84.4172 22.4727 84.5187 22.4311L84.5494 22.4197C84.6999 22.3581 84.8513 22.2909 85.0133 22.2142L85.0545 22.1943C85.1254 22.1602 85.1954 22.1251 85.2749 22.0844L85.3037 22.0693C85.3449 22.0484 85.3861 22.0266 85.4273 22.0039L85.4772 21.9764C85.6478 21.8827 85.8184 21.7832 85.9861 21.6762L86.0273 21.6506C86.173 21.5569 86.3168 21.4584 86.4567 21.3561L86.5592 21.2813C86.679 21.1913 86.7988 21.0966 86.9263 20.9905L86.8381 20.8892L86.9407 20.9782L87.0308 20.9024C87.1151 20.8314 87.1966 20.7594 87.2761 20.6837L87.2972 20.6638C87.371 20.5946 87.4439 20.5255 87.5148 20.4545L87.5761 20.3929C87.6854 20.2811 87.7851 20.1751 87.8867 20.0614L87.9403 19.9999C88.0017 19.9288 88.063 19.8568 88.1263 19.7792L88.1771 19.7176C88.2096 19.6769 88.2422 19.6352 88.2739 19.5935L88.2787 19.5945L88.3371 19.5168C88.433 19.389 88.5307 19.2507 88.6371 19.0906C88.7214 18.9637 88.7943 18.8491 88.8642 18.7326L88.94 18.6095L88.9361 18.6076C89.0118 18.475 89.1412 18.2136 89.2438 18.0024C89.3205 17.8424 89.2227 17.6539 89.0464 17.6226L84.4852 16.8129C84.3846 16.7949 84.2839 16.8356 84.2216 16.9152C83.4041 17.9484 82.2569 18.4835 81.0253 18.4835C79.5781 18.4835 78.2679 17.7211 77.5357 16.4937C77.4283 16.3137 77.5577 16.0864 77.7686 16.0864H89.6799C89.8131 16.0864 89.9262 15.9917 89.9482 15.862C90.0364 15.3562 90.0949 14.7851 90.0949 14.3002C90.0939 13.4611 89.9703 12.6248 89.7268 11.816ZM84.5044 12.3842H78.0321C77.8625 12.3842 77.7331 12.2308 77.7647 12.066C78.0015 10.8253 79.5924 9.86591 81.2678 9.86591C83.1118 9.86591 84.5619 10.8319 84.7727 12.0707C84.8015 12.2346 84.6731 12.3842 84.5044 12.3842Z" fill="url(#paint3_linear_89_876)"/>
<path d="M105.078 2.15452C103.875 1.15154 102.324 0.529297 98.3162 0.529297H91.3849C91.2344 0.529297 91.1127 0.649578 91.1127 0.798273V22.4622C91.1127 22.6099 91.2344 22.7302 91.3849 22.7302H96.5613C96.7109 22.7302 96.8326 22.6099 96.8326 22.4622V16.0911C96.8326 15.9433 96.9543 15.823 97.1038 15.823H98.9354C102.426 15.823 103.881 15.1468 105.345 13.8985C106.736 12.7023 107.67 10.3545 107.67 8.05683C107.67 5.6853 106.725 3.53349 105.078 2.15452ZM100.909 10.3914C100.187 10.7125 99.3111 10.7125 98.7878 10.7125H97.1038C96.9543 10.7125 96.8326 10.5922 96.8326 10.4445V5.90881C96.8326 5.76012 96.9543 5.63984 97.1038 5.63984H98.5817C99.1855 5.63984 100.098 5.63984 100.851 5.96185C101.749 6.34637 102.185 7.06143 102.185 8.14586C102.185 8.91111 101.964 9.92167 100.909 10.3914Z" fill="#706F6F"/>
<path d="M126.614 5.75838H121.862C121.711 5.75838 121.59 5.87866 121.59 6.02641V6.53879C121.59 6.64297 121.478 6.70548 121.386 6.65434C120.024 5.89382 118.484 5.49414 116.905 5.49414C111.926 5.49414 107.876 9.44164 107.876 14.2936C107.876 19.1466 111.926 23.0941 116.905 23.0941C118.484 23.0941 120.024 22.6934 121.386 21.9329C121.478 21.8818 121.59 21.9452 121.59 22.0485V22.2966C121.59 22.4443 121.711 22.5646 121.862 22.5646H126.614C126.764 22.5646 126.886 22.4443 126.886 22.2966V6.02641C126.886 5.87866 126.764 5.75838 126.614 5.75838ZM120.695 14.9528C120.695 15.3137 120.4 15.6054 120.035 15.6054L118.098 15.5201C117.945 15.5201 117.706 15.7332 117.706 15.8838L117.799 17.9513C117.799 18.2364 117.564 18.4684 117.278 18.4684L115.668 18.4665C115.381 18.4665 115.146 18.2364 115.146 17.9513L115.233 15.8999C115.233 15.7474 115.011 15.5428 114.857 15.5428L112.91 15.6054C112.545 15.6054 112.25 15.3137 112.25 14.9528V13.6354C112.25 13.2745 112.545 12.9828 112.91 12.9828L114.88 13.0378C115.036 13.0378 115.217 12.8502 115.217 12.6959L115.146 10.6909C115.146 10.3774 115.405 10.1198 115.724 10.1198H117.278C117.564 10.1198 117.799 10.3518 117.799 10.6369L117.721 12.6807C117.721 12.8332 117.936 13.0681 118.09 13.0681L120.035 12.9828C120.4 12.9828 120.695 13.2745 120.695 13.6354V14.9528Z" fill="#706F6F"/>
<path d="M144.557 5.76782H139.552C139.436 5.76782 139.332 5.84075 139.295 5.94966L136.438 14.2178C136.355 14.4565 136.015 14.4612 135.926 14.2245L132.826 5.94304C132.787 5.83791 132.685 5.76782 132.571 5.76782H127.837C127.648 5.76782 127.517 5.95345 127.582 6.12867L133.239 21.4091C133.26 21.466 133.261 21.5294 133.242 21.5872L131.172 27.6458C131.114 27.8191 131.244 28 131.43 28H136.712C136.827 28 136.929 27.928 136.968 27.821L139.459 20.8276L144.812 6.12772C144.877 5.95251 144.745 5.76782 144.557 5.76782Z" fill="#706F6F"/>
<path d="M161.568 11.816C161.378 11.1843 161.111 10.5705 160.775 9.98903L160.778 9.98808L160.61 9.71532C160.569 9.64997 160.527 9.58462 160.484 9.52022L160.388 9.37531C160.338 9.30144 160.286 9.22851 160.231 9.15842L160.222 9.14611C160.156 9.05708 160.088 8.96995 160.019 8.88377L159.962 8.81557C159.904 8.7436 159.843 8.67256 159.783 8.60248L159.735 8.54755L159.633 8.63468L159.721 8.53239C159.627 8.42537 159.524 8.3174 159.411 8.20091L159.355 8.14692C159.285 8.07589 159.214 8.00675 159.141 7.93856L159.117 7.91678C159.028 7.83154 158.935 7.75009 158.84 7.67053L158.767 7.60992C158.64 7.50479 158.521 7.41008 158.398 7.31727C158.369 7.29548 158.34 7.27465 158.311 7.25381L158.286 7.23582C158.143 7.13258 157.994 7.03124 157.837 6.93085L157.819 6.91854C157.671 6.82667 157.422 6.68082 157.269 6.59652C157.229 6.57474 157.187 6.55296 157.144 6.53023L157.073 6.64388L157.13 6.5236L157.107 6.51129C157.037 6.4753 156.967 6.44025 156.889 6.40332L156.85 6.38437C156.693 6.3105 156.539 6.24231 156.393 6.18264L156.348 6.16465C156.258 6.12866 156.168 6.09362 156.066 6.05668C156.032 6.04342 155.998 6.03205 155.965 6.01974C155.853 5.98091 155.742 5.94397 155.624 5.90704L155.604 5.90135C155.488 5.86537 155.361 5.83032 155.217 5.79339L155.106 5.76497C154.853 5.70341 154.594 5.65227 154.336 5.61154L154.228 5.59544C153.963 5.55756 153.692 5.53104 153.418 5.51589L153.318 5.51115C153.161 5.50357 153.031 5.50073 152.906 5.50073C152.781 5.50073 152.644 5.50452 152.487 5.51115C152.455 5.5121 152.421 5.51494 152.389 5.51683L152.365 5.51778C152.262 5.52346 152.16 5.53199 152.059 5.54051L152.027 5.54335C151.998 5.54619 151.967 5.54903 151.937 5.55188C151.79 5.56703 151.66 5.58313 151.541 5.60018L151.537 5.60112C151.535 5.60112 151.533 5.60207 151.531 5.60207L151.51 5.60491C151.391 5.62291 151.198 5.65795 151.081 5.68163L151.013 5.69583C150.916 5.71572 150.819 5.73751 150.722 5.76118L150.691 5.76876C150.663 5.77539 150.635 5.78202 150.607 5.7896C150.477 5.82275 150.348 5.85779 150.22 5.89662C150.093 5.9345 149.968 5.97712 149.843 6.02069C149.815 6.03111 149.787 6.04058 149.759 6.051L149.733 6.06047C149.641 6.09456 149.55 6.1296 149.46 6.16559L149.435 6.17601C149.406 6.18738 149.378 6.1978 149.35 6.21011C149.23 6.2603 149.11 6.3124 148.99 6.36922C148.872 6.42415 148.756 6.48287 148.641 6.54254C148.613 6.55769 148.587 6.5719 148.56 6.58611L148.538 6.59842C148.453 6.64388 148.37 6.69029 148.287 6.73954L148.187 6.79731C148.076 6.86361 147.966 6.9318 147.858 7.00283C146.782 7.71126 145.856 8.65741 145.182 9.73805C145.115 9.84696 145.051 9.95683 144.988 10.0686L144.909 10.2116C144.894 10.2391 144.878 10.2665 144.864 10.294C144.85 10.3205 144.836 10.348 144.823 10.3754L144.789 10.4427C144.775 10.4692 144.762 10.4967 144.748 10.5241C144.692 10.6397 144.637 10.7562 144.586 10.8746C144.497 11.0791 144.414 11.2989 144.33 11.5451C144.077 12.2933 143.929 13.068 143.887 13.8475C143.88 13.9971 143.876 14.1496 143.876 14.3002C143.876 14.4518 143.88 14.6042 143.887 14.7529C143.91 15.1971 143.969 15.6413 144.059 16.0741C144.09 16.2181 144.123 16.3611 144.161 16.4994C144.205 16.668 144.258 16.8451 144.33 17.0553C144.458 17.4332 144.609 17.7988 144.78 18.1407C144.794 18.1691 144.808 18.1956 144.823 18.2231L144.85 18.2733C144.897 18.3642 144.945 18.4551 144.995 18.5451L145.018 18.5877C145.071 18.6805 145.126 18.7715 145.182 18.8624C145.856 19.943 146.782 20.8892 147.858 21.5976C147.966 21.6686 148.076 21.7368 148.186 21.8031L148.287 21.8618C148.369 21.9101 148.453 21.9566 148.538 22.002L148.56 22.0143C148.587 22.0285 148.613 22.0437 148.64 22.0579C148.755 22.1176 148.871 22.1763 148.979 22.2255L148.992 22.2322C149.11 22.288 149.23 22.3401 149.35 22.3903C149.378 22.4026 149.406 22.414 149.434 22.4244L149.459 22.4348C149.549 22.4708 149.64 22.5059 149.732 22.54L149.754 22.5475C149.784 22.5589 149.813 22.5693 149.843 22.5797C149.967 22.6233 150.092 22.6659 150.221 22.7048C150.336 22.7398 150.462 22.7739 150.606 22.8108C150.634 22.8184 150.663 22.825 150.69 22.8317L150.721 22.8393C150.818 22.8629 150.915 22.8847 151.012 22.9046L151.13 22.9292C151.24 22.951 151.349 22.9709 151.459 22.9879L151.531 22.9984C151.533 22.9993 151.535 22.9993 151.537 22.9993L151.54 23.0003C151.659 23.0173 151.79 23.0334 151.937 23.0486C151.967 23.0523 151.997 23.0542 152.026 23.0571L152.058 23.0599C152.16 23.0694 152.261 23.077 152.364 23.0827L152.394 23.0845C152.425 23.0864 152.456 23.0883 152.487 23.0893C152.643 23.0969 152.78 23.0997 152.905 23.0997C153.03 23.0997 153.161 23.0969 153.323 23.0893L153.423 23.0845C153.692 23.0694 153.962 23.0429 154.237 23.004L154.335 22.9889C154.593 22.9491 154.853 22.897 155.113 22.8345L155.215 22.808C155.361 22.7701 155.488 22.7351 155.61 22.6981L155.63 22.6915C155.743 22.6565 155.855 22.6186 155.966 22.5797L156.077 22.5409C156.168 22.5068 156.259 22.4727 156.36 22.4311L156.391 22.4197C156.542 22.3581 156.693 22.2909 156.854 22.2142L156.896 22.1943C156.967 22.1602 157.037 22.1251 157.117 22.0844L157.145 22.0693C157.187 22.0484 157.228 22.0266 157.269 22.0039L157.319 21.9764C157.489 21.8827 157.659 21.7832 157.827 21.6762L157.869 21.6506C158.015 21.5569 158.158 21.4584 158.298 21.3561L158.401 21.2813C158.521 21.1913 158.64 21.0966 158.768 20.9905L158.68 20.8892L158.782 20.9782L158.872 20.9024C158.956 20.8314 159.038 20.7594 159.118 20.6837L159.139 20.6638C159.213 20.5946 159.285 20.5255 159.356 20.4545L159.418 20.3929C159.527 20.2811 159.627 20.1751 159.728 20.0614L159.782 19.9999C159.843 19.9288 159.904 19.8568 159.968 19.7792L160.018 19.7176C160.051 19.6769 160.084 19.6352 160.115 19.5935L160.12 19.5945L160.178 19.5168C160.275 19.389 160.372 19.2507 160.479 19.0906C160.563 18.9637 160.636 18.8491 160.706 18.7326L160.782 18.6095L160.778 18.6076C160.853 18.475 160.983 18.2136 161.085 18.0024C161.162 17.8424 161.064 17.6539 160.888 17.6226L156.327 16.8129C156.226 16.7949 156.126 16.8356 156.063 16.9152C155.246 17.9484 154.098 18.4835 152.867 18.4835C151.42 18.4835 150.11 17.7211 149.377 16.4937C149.27 16.3137 149.399 16.0864 149.61 16.0864H161.521C161.655 16.0864 161.768 15.9917 161.79 15.862C161.878 15.3562 161.936 14.7851 161.936 14.3002C161.936 13.4611 161.812 12.6248 161.568 11.816ZM156.346 12.3842H149.874C149.704 12.3842 149.575 12.2308 149.606 12.066C149.843 10.8253 151.434 9.86591 153.109 9.86591C154.953 9.86591 156.403 10.8319 156.614 12.0707C156.643 12.2346 156.515 12.3842 156.346 12.3842Z" fill="#706F6F"/>
<path d="M172.167 5.76877C171.044 5.78392 169.711 5.92693 168.585 6.61926C168.495 6.67419 168.379 6.60979 168.379 6.50561V6.0368C168.379 5.8881 168.257 5.76782 168.107 5.76782H163.355C163.205 5.76782 163.083 5.8881 163.083 6.0368V22.306C163.083 22.4538 163.205 22.5741 163.355 22.5741H168.427C168.576 22.5741 168.698 22.4538 168.698 22.306V12.8483C168.698 12.1967 168.698 11.6824 168.973 11.1009C169.075 10.8746 169.429 10.4095 170.04 10.2637C170.588 10.133 171.518 10.1936 171.984 10.2362C172.139 10.2514 172.273 10.1339 172.279 9.98051L172.442 6.04911C172.448 5.89473 172.323 5.76688 172.167 5.76877Z" fill="#706F6F"/>
<path d="M105.078 2.15452C103.875 1.15154 102.324 0.529297 98.3162 0.529297H91.3849C91.2344 0.529297 91.1127 0.649578 91.1127 0.798273V22.4622C91.1127 22.6099 91.2344 22.7302 91.3849 22.7302H96.5613C96.7109 22.7302 96.8326 22.6099 96.8326 22.4622V16.0911C96.8326 15.9433 96.9543 15.823 97.1038 15.823H98.9354C102.426 15.823 103.881 15.1468 105.345 13.8985C106.736 12.7023 107.67 10.3545 107.67 8.05683C107.67 5.6853 106.725 3.53349 105.078 2.15452ZM100.909 10.3914C100.187 10.7125 99.3111 10.7125 98.7878 10.7125H97.1038C96.9543 10.7125 96.8326 10.5922 96.8326 10.4445V5.90881C96.8326 5.76012 96.9543 5.63984 97.1038 5.63984H98.5817C99.1855 5.63984 100.098 5.63984 100.851 5.96185C101.749 6.34637 102.185 7.06143 102.185 8.14586C102.185 8.91111 101.964 9.92167 100.909 10.3914Z" fill="white"/>
<path d="M126.614 5.75838H121.862C121.711 5.75838 121.59 5.87866 121.59 6.02641V6.53879C121.59 6.64297 121.478 6.70548 121.386 6.65434C120.024 5.89382 118.484 5.49414 116.905 5.49414C111.926 5.49414 107.876 9.44164 107.876 14.2936C107.876 19.1466 111.926 23.0941 116.905 23.0941C118.484 23.0941 120.024 22.6934 121.386 21.9329C121.478 21.8818 121.59 21.9452 121.59 22.0485V22.2966C121.59 22.4443 121.711 22.5646 121.862 22.5646H126.614C126.764 22.5646 126.886 22.4443 126.886 22.2966V6.02641C126.886 5.87866 126.764 5.75838 126.614 5.75838ZM120.695 14.9528C120.695 15.3137 120.4 15.6054 120.035 15.6054L118.098 15.5201C117.945 15.5201 117.706 15.7332 117.706 15.8838L117.799 17.9513C117.799 18.2364 117.564 18.4684 117.278 18.4684L115.668 18.4665C115.381 18.4665 115.146 18.2364 115.146 17.9513L115.233 15.8999C115.233 15.7474 115.011 15.5428 114.857 15.5428L112.91 15.6054C112.545 15.6054 112.25 15.3137 112.25 14.9528V13.6354C112.25 13.2745 112.545 12.9828 112.91 12.9828L114.88 13.0378C115.036 13.0378 115.217 12.8502 115.217 12.6959L115.146 10.6909C115.146 10.3774 115.405 10.1198 115.724 10.1198H117.278C117.564 10.1198 117.799 10.3518 117.799 10.6369L117.721 12.6807C117.721 12.8332 117.936 13.0681 118.09 13.0681L120.035 12.9828C120.4 12.9828 120.695 13.2745 120.695 13.6354V14.9528Z" fill="white"/>
<path d="M144.557 5.76782H139.552C139.436 5.76782 139.332 5.84075 139.295 5.94966L136.438 14.2178C136.355 14.4565 136.015 14.4612 135.926 14.2245L132.826 5.94304C132.787 5.83791 132.685 5.76782 132.571 5.76782H127.837C127.648 5.76782 127.517 5.95345 127.582 6.12867L133.239 21.4091C133.26 21.466 133.261 21.5294 133.242 21.5872L131.172 27.6458C131.114 27.8191 131.244 28 131.43 28H136.712C136.827 28 136.929 27.928 136.968 27.821L139.459 20.8276L144.812 6.12772C144.877 5.95251 144.745 5.76782 144.557 5.76782Z" fill="white"/>
<path d="M161.568 11.816C161.378 11.1843 161.111 10.5705 160.775 9.98903L160.778 9.98808L160.61 9.71532C160.569 9.64997 160.527 9.58462 160.484 9.52022L160.388 9.37531C160.338 9.30144 160.286 9.22851 160.231 9.15842L160.222 9.14611C160.156 9.05708 160.088 8.96995 160.019 8.88377L159.962 8.81557C159.904 8.7436 159.843 8.67256 159.783 8.60248L159.735 8.54755L159.633 8.63468L159.721 8.53239C159.627 8.42537 159.524 8.3174 159.411 8.20091L159.355 8.14692C159.285 8.07589 159.214 8.00675 159.141 7.93856L159.117 7.91678C159.028 7.83154 158.935 7.75009 158.84 7.67053L158.767 7.60992C158.64 7.50479 158.521 7.41008 158.398 7.31727C158.369 7.29548 158.34 7.27465 158.311 7.25381L158.286 7.23582C158.143 7.13258 157.994 7.03124 157.837 6.93085L157.819 6.91854C157.671 6.82667 157.422 6.68082 157.269 6.59652C157.229 6.57474 157.187 6.55296 157.144 6.53023L157.073 6.64388L157.13 6.5236L157.107 6.51129C157.037 6.4753 156.967 6.44025 156.889 6.40332L156.85 6.38437C156.693 6.3105 156.539 6.24231 156.393 6.18264L156.348 6.16465C156.258 6.12866 156.168 6.09362 156.066 6.05668C156.032 6.04342 155.998 6.03205 155.965 6.01974C155.853 5.98091 155.742 5.94397 155.624 5.90704L155.604 5.90135C155.488 5.86537 155.361 5.83032 155.217 5.79339L155.106 5.76497C154.853 5.70341 154.594 5.65227 154.336 5.61154L154.228 5.59544C153.963 5.55756 153.692 5.53104 153.418 5.51589L153.318 5.51115C153.161 5.50357 153.031 5.50073 152.906 5.50073C152.781 5.50073 152.644 5.50452 152.487 5.51115C152.455 5.5121 152.421 5.51494 152.389 5.51683L152.365 5.51778C152.262 5.52346 152.16 5.53199 152.059 5.54051L152.027 5.54335C151.998 5.54619 151.967 5.54903 151.937 5.55188C151.79 5.56703 151.66 5.58313 151.541 5.60018L151.537 5.60112C151.535 5.60112 151.533 5.60207 151.531 5.60207L151.51 5.60491C151.391 5.62291 151.198 5.65795 151.081 5.68163L151.013 5.69583C150.916 5.71572 150.819 5.73751 150.722 5.76118L150.691 5.76876C150.663 5.77539 150.635 5.78202 150.607 5.7896C150.477 5.82275 150.348 5.85779 150.22 5.89662C150.093 5.9345 149.968 5.97712 149.843 6.02069C149.815 6.03111 149.787 6.04058 149.759 6.051L149.733 6.06047C149.641 6.09456 149.55 6.1296 149.46 6.16559L149.435 6.17601C149.406 6.18738 149.378 6.1978 149.35 6.21011C149.23 6.2603 149.11 6.3124 148.99 6.36922C148.872 6.42415 148.756 6.48287 148.641 6.54254C148.613 6.55769 148.587 6.5719 148.56 6.58611L148.538 6.59842C148.453 6.64388 148.37 6.69029 148.287 6.73954L148.187 6.79731C148.076 6.86361 147.966 6.9318 147.858 7.00283C146.782 7.71126 145.856 8.65741 145.182 9.73805C145.115 9.84696 145.051 9.95683 144.988 10.0686L144.909 10.2116C144.894 10.2391 144.878 10.2665 144.864 10.294C144.85 10.3205 144.836 10.348 144.823 10.3754L144.789 10.4427C144.775 10.4692 144.762 10.4967 144.748 10.5241C144.692 10.6397 144.637 10.7562 144.586 10.8746C144.497 11.0791 144.414 11.2989 144.33 11.5451C144.077 12.2933 143.929 13.068 143.887 13.8475C143.88 13.9971 143.876 14.1496 143.876 14.3002C143.876 14.4518 143.88 14.6042 143.887 14.7529C143.91 15.1971 143.969 15.6413 144.059 16.0741C144.09 16.2181 144.123 16.3611 144.161 16.4994C144.205 16.668 144.258 16.8451 144.33 17.0553C144.458 17.4332 144.609 17.7988 144.78 18.1407C144.794 18.1691 144.808 18.1956 144.823 18.2231L144.85 18.2733C144.897 18.3642 144.945 18.4551 144.995 18.5451L145.018 18.5877C145.071 18.6805 145.126 18.7715 145.182 18.8624C145.856 19.943 146.782 20.8892 147.858 21.5976C147.966 21.6686 148.076 21.7368 148.186 21.8031L148.287 21.8618C148.369 21.9101 148.453 21.9566 148.538 22.002L148.56 22.0143C148.587 22.0285 148.613 22.0437 148.64 22.0579C148.755 22.1176 148.871 22.1763 148.979 22.2255L148.992 22.2322C149.11 22.288 149.23 22.3401 149.35 22.3903C149.378 22.4026 149.406 22.414 149.434 22.4244L149.459 22.4348C149.549 22.4708 149.64 22.5059 149.732 22.54L149.754 22.5475C149.784 22.5589 149.813 22.5693 149.843 22.5797C149.967 22.6233 150.092 22.6659 150.221 22.7048C150.336 22.7398 150.462 22.7739 150.606 22.8108C150.634 22.8184 150.663 22.825 150.69 22.8317L150.721 22.8393C150.818 22.8629 150.915 22.8847 151.012 22.9046L151.13 22.9292C151.24 22.951 151.349 22.9709 151.459 22.9879L151.531 22.9984C151.533 22.9993 151.535 22.9993 151.537 22.9993L151.54 23.0003C151.659 23.0173 151.79 23.0334 151.937 23.0486C151.967 23.0523 151.997 23.0542 152.026 23.0571L152.058 23.0599C152.16 23.0694 152.261 23.077 152.364 23.0827L152.394 23.0845C152.425 23.0864 152.456 23.0883 152.487 23.0893C152.643 23.0969 152.78 23.0997 152.905 23.0997C153.03 23.0997 153.161 23.0969 153.323 23.0893L153.423 23.0845C153.692 23.0694 153.962 23.0429 154.237 23.004L154.335 22.9889C154.593 22.9491 154.853 22.897 155.113 22.8345L155.215 22.808C155.361 22.7701 155.488 22.7351 155.61 22.6981L155.63 22.6915C155.743 22.6565 155.855 22.6186 155.966 22.5797L156.077 22.5409C156.168 22.5068 156.259 22.4727 156.36 22.4311L156.391 22.4197C156.542 22.3581 156.693 22.2909 156.854 22.2142L156.896 22.1943C156.967 22.1602 157.037 22.1251 157.117 22.0844L157.145 22.0693C157.187 22.0484 157.228 22.0266 157.269 22.0039L157.319 21.9764C157.489 21.8827 157.659 21.7832 157.827 21.6762L157.869 21.6506C158.015 21.5569 158.158 21.4584 158.298 21.3561L158.401 21.2813C158.521 21.1913 158.64 21.0966 158.768 20.9905L158.68 20.8892L158.782 20.9782L158.872 20.9024C158.956 20.8314 159.038 20.7594 159.118 20.6837L159.139 20.6638C159.213 20.5946 159.285 20.5255 159.356 20.4545L159.418 20.3929C159.527 20.2811 159.627 20.1751 159.728 20.0614L159.782 19.9999C159.843 19.9288 159.904 19.8568 159.968 19.7792L160.018 19.7176C160.051 19.6769 160.084 19.6352 160.115 19.5935L160.12 19.5945L160.178 19.5168C160.275 19.389 160.372 19.2507 160.479 19.0906C160.563 18.9637 160.636 18.8491 160.706 18.7326L160.782 18.6095L160.778 18.6076C160.853 18.475 160.983 18.2136 161.085 18.0024C161.162 17.8424 161.064 17.6539 160.888 17.6226L156.327 16.8129C156.226 16.7949 156.126 16.8356 156.063 16.9152C155.246 17.9484 154.098 18.4835 152.867 18.4835C151.42 18.4835 150.11 17.7211 149.377 16.4937C149.27 16.3137 149.399 16.0864 149.61 16.0864H161.521C161.655 16.0864 161.768 15.9917 161.79 15.862C161.878 15.3562 161.936 14.7851 161.936 14.3002C161.936 13.4611 161.812 12.6248 161.568 11.816ZM156.346 12.3842H149.874C149.704 12.3842 149.575 12.2308 149.606 12.066C149.843 10.8253 151.434 9.86591 153.109 9.86591C154.953 9.86591 156.403 10.8319 156.614 12.0707C156.643 12.2346 156.515 12.3842 156.346 12.3842Z" fill="white"/>
<path d="M172.167 5.76877C171.044 5.78392 169.711 5.92693 168.585 6.61926C168.495 6.67419 168.379 6.60979 168.379 6.50561V6.0368C168.379 5.8881 168.257 5.76782 168.107 5.76782H163.355C163.205 5.76782 163.083 5.8881 163.083 6.0368V22.306C163.083 22.4538 163.205 22.5741 163.355 22.5741H168.427C168.576 22.5741 168.698 22.4538 168.698 22.306V12.8483C168.698 12.1967 168.698 11.6824 168.973 11.1009C169.075 10.8746 169.429 10.4095 170.04 10.2637C170.588 10.133 171.518 10.1936 171.984 10.2362C172.139 10.2514 172.273 10.1339 172.279 9.98051L172.442 6.04911C172.448 5.89473 172.323 5.76688 172.167 5.76877Z" fill="white"/>
</g>
<defs>
<linearGradient id="paint0_linear_89_876" x1="-0.608745" y1="23.6852" x2="81.4236" y2="-59.3283" gradientUnits="userSpaceOnUse">
<stop offset="0.0335" stop-color="#9B3EE5"/>
<stop offset="0.268" stop-color="#C6399D"/>
</linearGradient>
<linearGradient id="paint1_linear_89_876" x1="4.36321" y1="45.7612" x2="94.6721" y2="-45.6279" gradientUnits="userSpaceOnUse">
<stop offset="0.2338" stop-color="#9B3EE5"/>
<stop offset="0.4911" stop-color="#C6399D"/>
</linearGradient>
<linearGradient id="paint2_linear_89_876" x1="11.043" y1="60.614" x2="93.6099" y2="-22.9404" gradientUnits="userSpaceOnUse">
<stop offset="0.3299" stop-color="#9B3EE5"/>
<stop offset="0.8618" stop-color="#C6399D"/>
</linearGradient>
<linearGradient id="paint3_linear_89_876" x1="19.927" y1="74.7142" x2="100.499" y2="-6.82184" gradientUnits="userSpaceOnUse">
<stop offset="0.4705" stop-color="#9B3EE5"/>
<stop offset="0.9217" stop-color="#C6399D"/>
</linearGradient>
<clipPath id="clip0_89_876">
<rect width="172.442" height="28" fill="white"/>
</clipPath>
</defs>
</svg>
