<svg width="21" height="21" viewBox="0 0 21 21" fill="none" xmlns="http://www.w3.org/2000/svg">
<path d="M1 16.2002L1 4.80024C1 3.47011 1 2.80455 1.25886 2.29651C1.48655 1.84962 1.84962 1.48655 2.29651 1.25886C2.80455 1 3.47011 1 4.80024 1L16.2002 1C17.5304 1 18.1945 1 18.7025 1.25886C19.1494 1.48655 19.5137 1.84962 19.7414 2.29651C20 2.80405 20 3.4688 20 4.79633V16.2043C20 17.5318 20 18.1956 19.7414 18.7031C19.5137 19.15 19.1494 19.5137 18.7025 19.7414C18.195 20 17.5312 20 16.2037 20H4.79633C3.4688 20 2.80405 20 2.29651 19.7414C1.84962 19.5137 1.48655 19.15 1.25886 18.7031C1 18.1951 1 17.5304 1 16.2002Z" stroke="url(#paint0_linear_89_836)" stroke-width="2" stroke-linecap="round" stroke-linejoin="round"/>
<path d="M5.56 10.5001L9.55 13.9201L16.2 7.08008" stroke="url(#paint1_linear_89_836)" stroke-width="2" stroke-linecap="round" stroke-linejoin="round"/>
<defs>
<linearGradient id="paint0_linear_89_836" x1="-0.0680527" y1="33.3644" x2="31.5635" y2="26.2578" gradientUnits="userSpaceOnUse">
<stop stop-color="#8B3FFD"/>
<stop offset="1" stop-color="#FD3F9A" stop-opacity="0.83"/>
</linearGradient>
<linearGradient id="paint1_linear_89_836" x1="4.96189" y1="18.7313" x2="21.5443" y2="12.936" gradientUnits="userSpaceOnUse">
<stop stop-color="#8B3FFD"/>
<stop offset="1" stop-color="#FD3F9A" stop-opacity="0.83"/>
</linearGradient>
</defs>
</svg>
