<svg width="31" height="28" viewBox="0 0 31 28" fill="none" xmlns="http://www.w3.org/2000/svg">
<path fill-rule="evenodd" clip-rule="evenodd" d="M14.8496 0.0134408C14.7528 0.0263556 14.4662 0.0631299 14.2126 0.0951432C12.7669 0.277701 11.038 1.0365 9.86219 2.00451C8.37706 3.2272 7.32923 4.98782 7.00998 6.79704C6.89491 7.44913 6.90988 8.92984 7.03761 9.52879C7.4589 11.5037 8.65336 13.3318 10.2669 14.471L10.6685 14.7545L10.5001 14.8142C9.79407 15.0643 9.48397 15.1903 8.88437 15.4704C6.27747 16.6883 4.15635 18.5306 2.64998 20.8853C1.41603 22.8141 0.728531 24.9635 0.584307 27.3433L0.544525 28H1.72684H2.90915V27.7322C2.90915 25.878 3.73694 23.3142 4.84427 21.7393C6.55466 19.3064 8.84147 17.6375 11.6305 16.7867C14.28 15.9786 16.8861 15.9786 19.5356 16.7867C22.3246 17.6375 24.6115 19.3064 26.3218 21.7393C27.4292 23.3142 28.257 25.878 28.257 27.7322V28H29.4393H30.6216L30.5818 27.3433C30.4376 24.9635 29.7501 22.8141 28.5161 20.8853C27.0098 18.5306 24.8886 16.6883 22.2817 15.4704C21.6821 15.1903 21.372 15.0643 20.6661 14.8142L20.4976 14.7545L20.8992 14.471C22.5127 13.3318 23.7072 11.5037 24.1285 9.52879C24.2562 8.92984 24.2712 7.44913 24.1561 6.79704C23.9013 5.35299 23.1248 3.82834 22.0874 2.7354C20.8056 1.38487 18.996 0.430873 17.1131 0.112874C16.6601 0.03637 15.1687 -0.0291342 14.8496 0.0134408ZM16.5756 2.25443C20.0274 2.77655 22.3861 5.80758 21.8299 9.00629C21.2701 12.2256 18.0202 14.4255 14.5905 13.9067C11.1387 13.3846 8.77998 10.3536 9.33617 7.15488C9.89587 3.93609 13.1464 1.73576 16.5756 2.25443Z" fill="url(#paint0_linear_89_865)"/>
<defs>
<linearGradient id="paint0_linear_89_865" x1="0.544525" y1="14" x2="31.2373" y2="14" gradientUnits="userSpaceOnUse">
<stop stop-color="#8B3FFD" stop-opacity="0.9"/>
<stop offset="1" stop-color="#FD3F9A" stop-opacity="0.83"/>
</linearGradient>
</defs>
</svg>
