<svg width="103" height="48" viewBox="0 0 103 48" fill="none" xmlns="http://www.w3.org/2000/svg">
<path d="M50.4748 27.1695H52.0791V30.8558H53.238L55.3181 27.1695H57.0718L54.5753 31.4961V31.5262L57.2205 36.2475H55.4074L53.2677 32.2867H52.1095V36.2475H50.5045V27.1685L50.4748 27.1695ZM60.8159 29.5767C62.7462 29.5767 64.3219 31.0083 64.3219 32.9885C64.3219 34.9999 62.7766 36.401 60.8455 36.401C58.9135 36.401 57.3681 34.9995 57.3681 32.9885C57.3388 30.9779 58.8838 29.5767 60.8159 29.5767ZM65.5694 29.7281H67.0851V34.8471H69.0765V29.7292H70.5911V34.8471H72.5822V29.7292H74.0978V36.2475H65.6288V29.7281H65.5694ZM78.5854 29.5767C80.3974 29.5767 81.408 30.9475 81.408 32.6543C81.4029 32.8684 81.3831 33.0818 81.3486 33.2931H76.9804C77.0698 34.4201 77.9316 35.03 78.8828 35.03C79.5356 35.03 80.1897 34.725 80.6948 34.3292L81.3193 35.4873C80.6655 36.065 79.6846 36.4315 78.7638 36.4315C76.6533 36.4315 75.3464 34.8775 75.3464 33.0186C75.3464 30.9779 76.6827 29.5767 78.5854 29.5767ZM82.1504 34.8775C82.9236 34.7554 83.4877 34.0858 83.4877 31.7695V29.7292H88.124V36.2475H86.5483V31.0376H85.0033V31.7688C85.0033 34.6019 84.2609 36.2475 82.1504 36.3083V34.8775ZM92.6402 29.5767C94.4525 29.5767 95.4627 30.9475 95.4627 32.6543C95.4577 32.8684 95.4378 33.0818 95.4034 33.2931H91.0352C91.1249 34.4201 91.9864 35.03 92.9376 35.03C93.5907 35.03 94.2445 34.725 94.7496 34.3292L95.3744 35.4873C94.7203 36.065 93.7394 36.4315 92.8186 36.4315C90.7092 36.4315 89.4012 34.8775 89.4012 33.0186C89.4012 30.9779 90.7385 29.5767 92.6402 29.5767ZM96.7707 29.7281H98.345V32.2269H99.1182L100.663 29.7288H102.416L100.395 32.8361V32.8672L102.654 36.2475H100.812L99.1478 33.598H98.3167V36.2475H96.74V29.7281H96.7707ZM60.8159 34.9999C61.8561 34.9999 62.7176 34.1767 62.7176 32.9581C62.7176 31.7699 61.8561 30.9163 60.8152 30.9163C59.776 30.9163 58.9442 31.7402 58.9442 32.9581C58.9442 34.1767 59.775 34.9999 60.8159 34.9999ZM79.8036 32.1664C79.8036 31.3132 79.2382 30.7954 78.5254 30.7954C77.7239 30.7954 77.1291 31.3436 76.9804 32.1661L79.8036 32.1664ZM93.8584 32.1664C93.8584 31.3132 93.2943 30.7954 92.5812 30.7954C91.7777 30.7954 91.1839 31.3436 91.0352 32.1661L93.8584 32.1664Z" fill="white"/>
<path d="M72.6719 7.39657V22.7824C72.6731 22.8387 72.6632 22.8947 72.6428 22.9469C72.6224 22.9992 72.5918 23.0466 72.553 23.0864C72.5142 23.1262 72.4679 23.1575 72.4169 23.1785C72.366 23.1994 72.3114 23.2096 72.2565 23.2083H69.1952C69.1403 23.2096 69.0857 23.1994 69.0348 23.1785C68.9838 23.1575 68.9375 23.1262 68.8987 23.0864C68.8599 23.0466 68.8293 22.9992 68.8089 22.9469C68.7885 22.8947 68.7786 22.8387 68.7798 22.7824V7.39657C68.7786 7.3403 68.7885 7.28435 68.8089 7.2321C68.8293 7.17985 68.8599 7.13239 68.8987 7.09259C68.9375 7.05278 68.9838 7.02146 69.0348 7.00051C69.0857 6.97955 69.1403 6.96941 69.1952 6.97068H72.2565C72.3114 6.96941 72.366 6.97955 72.4169 7.00051C72.4679 7.02146 72.5142 7.05278 72.553 7.09259C72.5918 7.13239 72.6224 7.17985 72.6428 7.2321C72.6632 7.28435 72.6731 7.3403 72.6719 7.39657ZM96.5627 6.97068C96.682 6.97068 96.8307 7.03116 96.978 7.15321C97.0681 7.24411 97.0681 7.39657 97.0384 7.51897L91.9864 22.9349C91.9557 23.0146 91.9027 23.0833 91.8339 23.1321C91.7652 23.181 91.6839 23.2079 91.6003 23.2094H88.8668C88.6884 23.2094 88.5397 23.1174 88.4807 22.9349L85.5371 13.9475L82.5955 22.9342C82.5647 23.0139 82.5117 23.0824 82.443 23.1312C82.3743 23.18 82.293 23.2068 82.2094 23.2083H79.4759C79.2979 23.2083 79.1488 23.1174 79.0898 22.9338L74.0374 7.5179C74.0078 7.39657 74.0078 7.27453 74.0968 7.15321C74.1565 7.03116 74.3052 6.97068 74.4235 6.97068H77.8409C78.0189 6.97068 78.1676 7.09165 78.2276 7.27453L80.9311 16.384L83.9031 7.27453C83.9338 7.19478 83.9868 7.12614 84.0555 7.07728C84.1243 7.02843 84.2055 7.00154 84.2891 7.00003H86.696C86.874 7.00003 87.0227 7.09165 87.082 7.27453L90.054 16.384L92.7582 7.27453C92.7824 7.18819 92.833 7.11208 92.9024 7.05733C92.9719 7.00259 93.0566 6.9721 93.1442 6.97032L96.5627 6.97068ZM101.733 6.97068C101.941 6.97068 102.119 7.15321 102.148 7.39657V22.7824C102.15 22.8387 102.14 22.8947 102.119 22.9469C102.099 22.9992 102.068 23.0466 102.03 23.0864C101.991 23.1262 101.944 23.1575 101.893 23.1785C101.842 23.1994 101.788 23.2096 101.733 23.2083H98.6721C98.6172 23.2096 98.5626 23.1994 98.5116 23.1785C98.4607 23.1575 98.4144 23.1262 98.3756 23.0864C98.3367 23.0466 98.3062 22.9992 98.2858 22.9469C98.2653 22.8947 98.2554 22.8387 98.2567 22.7824V7.39657C98.2554 7.3403 98.2653 7.28435 98.2858 7.2321C98.3062 7.17985 98.3367 7.13239 98.3756 7.09259C98.4144 7.05278 98.4607 7.02146 98.5116 7.00051C98.5626 6.97955 98.6172 6.96941 98.6721 6.97068H101.733ZM66.9964 22.6611C67.1745 22.8741 67.0261 23.1783 66.7584 23.1783H63.0139C62.9402 23.1803 62.867 23.1648 62.8 23.1331C62.7331 23.1014 62.6742 23.0543 62.6279 22.9954L62.0044 22.2037C60.6968 23.0559 59.1508 23.5748 57.5169 23.5748C52.9417 23.5748 49.2269 19.7665 49.2269 15.0745C49.2269 10.3825 52.9416 6.57378 57.5172 6.57378C62.0935 6.57378 65.8079 10.3825 65.8079 15.0745C65.8079 16.7505 65.3321 18.3349 64.5003 19.6745L66.9964 22.6611ZM35.7065 30.125C36.4794 30.4295 36.7768 31.6174 36.8358 32.1353C36.9551 33.0801 36.6881 33.4455 36.3907 33.4455C36.0933 33.4455 35.6769 33.0805 35.2318 32.3493C34.7853 31.617 34.607 30.7953 34.8454 30.3683C34.9934 30.0935 35.3194 29.9725 35.7065 30.125ZM31.19 33.5679C31.6657 33.5679 32.2005 33.7809 32.6759 34.2071C33.5968 34.9995 33.8649 35.9136 33.3891 36.5835C33.1213 36.9189 32.6759 37.1322 32.1708 37.1322C31.6657 37.1322 31.1306 36.9493 30.7746 36.6139C29.9424 35.8831 29.705 34.6634 30.2388 33.9942C30.4475 33.7193 30.7746 33.5679 31.19 33.5679ZM20.7906 42.3721C9.49797 42.3725 0.346161 32.9885 0.346161 21.4117C0.346161 9.83419 9.49866 0.450928 20.7895 0.450928C32.0808 0.450928 41.2336 9.8349 41.2336 21.4113C41.2336 25.341 40.1641 29.0284 38.3521 32.166C38.2921 32.2573 38.1434 32.2269 38.1137 32.1048C37.4005 26.9565 34.3403 24.1224 29.8827 23.2699C29.4959 23.2083 29.4366 22.965 29.9421 22.9045C31.309 22.7824 33.24 22.8125 34.2506 22.9954C34.3106 22.4594 34.3404 21.9204 34.3399 21.3809C34.3399 13.7334 28.2777 7.5179 20.8189 7.5179C13.3611 7.5179 7.29885 13.7334 7.29885 21.3809C7.29885 29.0284 13.3611 35.2439 20.8199 35.2439H21.4433C21.2315 34.007 21.1417 32.7514 21.1753 31.4961C21.206 30.6429 21.384 30.5205 21.7408 31.1911C23.6128 34.512 26.2873 37.4976 31.5167 38.6862C35.7955 39.6614 40.0744 40.7881 44.68 46.7899C45.096 47.3078 44.4726 47.8561 43.9968 47.4299C39.3022 43.1638 35.0234 41.7626 31.1303 41.7626C26.7621 41.7938 23.7919 42.3721 20.7906 42.3721ZM59.5676 19.2486L57.9329 17.2068C57.7556 16.9939 57.9043 16.6585 58.1714 16.6585H61.618C61.7961 16.1711 61.8858 15.6228 61.8858 15.0745C61.8858 12.5459 60.0434 10.3521 57.5172 10.3521C54.9924 10.3521 53.149 12.5459 53.149 15.0745C53.149 17.6026 54.9921 19.7665 57.5172 19.7665C58.2303 19.7965 58.9442 19.5843 59.5676 19.2486Z" fill="#FF8C00"/>
</svg>
