<svg width="89" height="48" viewBox="0 0 89 48" fill="none" xmlns="http://www.w3.org/2000/svg">
<g clip-path="url(#clip0_89_750)">
<path d="M78.0148 13.7867V25.4249H74.1144V17.2609H70.3589V25.4249H66.4585V13.7859L78.0148 13.7859V13.7867Z" fill="white"/>
<path fill-rule="evenodd" clip-rule="evenodd" d="M58.4477 25.8405C61.9397 25.8405 64.5325 23.5595 64.5325 20.1019C64.5325 16.755 62.6195 14.5819 59.4225 14.5819C57.947 14.5819 56.7295 15.1353 55.8125 16.0902C56.0314 14.1166 57.5977 12.6758 59.3223 12.6758C59.7203 12.6758 62.7167 12.6691 62.7167 12.6691L64.4108 9.21387C64.4108 9.21387 60.6492 9.30511 58.9005 9.30511C54.9048 9.37969 52.2058 13.2494 52.2058 17.9491C52.2058 23.425 54.8381 25.8409 58.4481 25.8409L58.4477 25.8405ZM58.4693 17.642C59.7657 17.642 60.6645 18.5497 60.6645 20.1015C60.6645 21.4979 59.8659 22.6491 58.4693 22.6523C57.1335 22.6523 56.2347 21.586 56.2347 20.1253C56.2347 18.5731 57.1335 17.642 58.4693 17.642Z" fill="white"/>
<path d="M49.0311 21.5286C49.0311 21.5286 48.11 22.0943 46.7339 22.2014C45.1527 22.2514 43.7435 21.187 43.7435 19.296C43.7435 17.4514 44.987 16.3942 46.6944 16.3942C47.7414 16.3942 49.1264 17.1673 49.1264 17.1673C49.1264 17.1673 50.1399 15.1858 50.6648 14.1949C49.7035 13.4186 48.4231 12.9929 46.9338 12.9929C43.1753 12.9929 40.2642 15.604 40.2642 19.2726C40.2642 22.988 43.0003 25.5384 46.9338 25.461C48.0333 25.4174 49.5501 25.0064 50.4746 24.3737L49.0311 21.5286Z" fill="white"/>
<path d="M1.07001 10.5598L6.48051 20.8639L6.48051 27.1492L1.07634 37.4331L1.07001 10.5598Z" fill="#5B57A2"/>
<path d="M21.8442 17.1146L26.914 13.8038L37.2897 13.7935L21.8442 23.875V17.1146Z" fill="#D90751"/>
<path d="M21.8155 10.4992L21.8442 24.1415L16.421 20.5911L16.421 0.198242L21.8155 10.4992Z" fill="#FAB718"/>
<path d="M37.2897 13.7933L26.9136 13.8037L21.8155 10.4992L16.421 0.198242L37.2897 13.7933Z" fill="#ED6F26"/>
<path d="M21.8442 37.4902V30.8714L16.421 27.3884L16.424 47.8015L21.8442 37.4902Z" fill="#63B22F"/>
<path d="M26.9013 34.2095L6.48014 20.8639L1.07001 10.5598L37.2677 34.196L26.9013 34.2095Z" fill="#1487C9"/>
<path d="M16.4243 47.8015L21.8438 37.4902L26.901 34.2095L37.2674 34.196L16.4243 47.8015Z" fill="#017F36"/>
<path d="M1.07634 37.4331L16.4653 27.3888L11.2916 24.0066L6.48052 27.1492L1.07634 37.4331Z" fill="#984995"/>
<path d="M43.7446 33.2576C43.6254 33.4194 43.4687 33.5416 43.2807 33.6241C43.0878 33.7078 42.8813 33.7504 42.673 33.7495C42.4659 33.7525 42.2599 33.7157 42.0651 33.6408C41.89 33.5731 41.73 33.4674 41.5952 33.3306C41.462 33.1935 41.3575 33.028 41.2884 32.845C41.2135 32.6444 41.1762 32.4301 41.1786 32.2143C41.1786 32.0001 41.2132 31.8017 41.2851 31.6141C41.3508 31.4325 41.4509 31.2672 41.5792 31.1285C41.707 30.9908 41.8581 30.8801 42.0245 30.8021C42.1969 30.7227 42.3849 30.6799 42.5915 30.6799C42.8142 30.6799 43.0208 30.7096 43.2088 30.7687C43.3968 30.8282 43.5566 30.9274 43.688 31.0662L43.4594 31.4788C43.3488 31.372 43.2186 31.291 43.077 31.2408C42.9423 31.1945 42.8016 31.1713 42.66 31.1718C42.5353 31.1718 42.4162 31.1979 42.3004 31.2471C42.1862 31.2962 42.082 31.3681 41.9932 31.459C41.9024 31.5523 41.8309 31.6647 41.7832 31.789C41.7292 31.9244 41.7026 32.0704 41.705 32.2175C41.705 32.3797 41.733 32.5249 41.7862 32.6499C41.8398 32.7792 41.9117 32.8879 42.0021 32.9803C42.0934 33.0731 42.1995 33.1421 42.322 33.1886C42.4462 33.238 42.578 33.2626 42.7107 33.2612C42.8797 33.2612 43.0335 33.2247 43.1649 33.1552C43.2951 33.0882 43.4121 32.9953 43.5096 32.8815L43.7446 33.2576ZM44.3898 33.6801V30.7425H44.885V32.9311L46.4953 30.7425H46.9904V33.6805H46.4953V31.4919L44.885 33.6805L44.3898 33.6801ZM50.2705 33.2576C50.1487 33.4208 49.9889 33.5472 49.807 33.6241C49.614 33.7078 49.4074 33.7504 49.199 33.7495C48.992 33.7524 48.7862 33.7156 48.5914 33.6408C48.4162 33.5731 48.2561 33.4674 48.1212 33.3306C47.988 33.1935 47.8835 33.028 47.8144 32.845C47.7395 32.6444 47.7022 32.4301 47.7045 32.2143C47.7045 32.0001 47.7392 31.8017 47.811 31.6141C47.8803 31.4257 47.9804 31.2642 48.1052 31.1285C48.233 30.9908 48.3841 30.8801 48.5504 30.8021C48.729 30.7183 48.9224 30.6766 49.1175 30.6799C49.3401 30.6799 49.5468 30.7096 49.7348 30.7687C49.9228 30.8282 50.0825 30.9274 50.2143 31.0662L49.9853 31.4788C49.875 31.372 49.7449 31.2909 49.6034 31.2408C49.4686 31.1946 49.3279 31.1713 49.1864 31.1718C48.9376 31.1727 48.6987 31.2756 48.5192 31.459C48.4292 31.553 48.3578 31.6652 48.3092 31.789C48.2552 31.9244 48.2285 32.0704 48.231 32.2175C48.231 32.3797 48.2593 32.5249 48.3125 32.6499C48.3658 32.7792 48.4376 32.8879 48.5285 32.9803C48.6193 33.0731 48.7258 33.1421 48.8483 33.1886C48.9704 33.2346 49.0989 33.2612 49.2366 33.2612C49.406 33.2612 49.5564 33.2247 49.6908 33.1552C49.8211 33.0882 49.9381 32.9953 50.0356 32.8815L50.2705 33.2576ZM50.5245 30.7425H53.0652V31.2642H52.0439V33.6801H51.5487V31.2642H50.5274V30.7425H50.5245Z" fill="white"/>
<path fill-rule="evenodd" clip-rule="evenodd" d="M55.3776 33.6508C55.5656 33.5881 55.7254 33.4921 55.8631 33.3604L55.7127 32.951C55.6219 33.0371 55.4997 33.1097 55.3527 33.1692C55.2052 33.2287 55.0392 33.2581 54.8575 33.2581C54.5849 33.2581 54.3593 33.1823 54.1806 33.0272C54.0019 32.8717 53.9051 32.6543 53.8828 32.3766H56.0262C56.049 32.2605 56.0595 32.1421 56.0575 32.0236C56.0598 31.8352 56.0245 31.6485 55.954 31.4757C55.8898 31.3155 55.7961 31.1706 55.6784 31.0497C55.5591 30.9299 55.4185 30.8368 55.2648 30.776C55.104 30.7095 54.9328 30.6758 54.7603 30.6768C54.5284 30.6768 54.3247 30.7196 54.146 30.799C53.9775 30.8746 53.8251 30.9858 53.6981 31.1258C53.5746 31.2652 53.4798 31.4304 53.4196 31.611C53.3534 31.8033 53.3205 32.0068 53.3224 32.2116C53.3224 32.4429 53.3597 32.6539 53.4289 32.8423C53.4959 33.0249 53.5984 33.1902 53.7297 33.3275C53.8582 33.4624 54.0146 33.5651 54.1996 33.6377C54.3977 33.7126 54.6067 33.7494 54.8169 33.7464C55.0073 33.7451 55.1963 33.7126 55.3776 33.6508ZM54.1244 31.3896C54.2778 31.2413 54.4814 31.1687 54.7383 31.1687C54.9796 31.1687 55.174 31.2381 55.3151 31.3769C55.4562 31.5154 55.531 31.707 55.5437 31.951H53.8519C53.8758 31.7349 53.9727 31.5352 54.1244 31.3896Z" fill="white"/>
<path d="M56.731 30.7427H57.1822L58.2538 32.1985L59.2687 30.7427H59.7073V33.6806H59.2121V31.5384L58.2474 32.9015H58.2284L57.2262 31.538V33.6802H56.731V30.7427Z" fill="white"/>
<path fill-rule="evenodd" clip-rule="evenodd" d="M61.0539 30.7525C60.9038 30.7943 60.7604 30.8599 60.6284 30.9469L60.7598 31.3634C60.8726 31.3039 60.9854 31.2543 61.0983 31.2115C61.2111 31.1678 61.3552 31.148 61.5275 31.148C61.6653 31.148 61.7751 31.1718 61.8596 31.2178C61.9442 31.2606 62.0067 31.3269 62.0506 31.4062C62.0946 31.4856 62.1229 31.5843 62.1385 31.6998C62.1541 31.8152 62.1605 31.9406 62.1605 32.0762C62.059 32.001 61.9434 31.9502 61.8217 31.9275C61.7042 31.9026 61.5848 31.8893 61.465 31.8878C61.3175 31.8878 61.1798 31.9112 61.048 31.9505C60.9166 31.9902 60.8037 32.0497 60.7129 32.129C60.62 32.2082 60.545 32.3085 60.4932 32.4226C60.4382 32.5475 60.4104 32.684 60.4121 32.822C60.4121 33.1092 60.4903 33.3338 60.6466 33.4924C60.8038 33.6507 61.0104 33.7297 61.2673 33.7297C61.4992 33.7297 61.6843 33.6868 61.825 33.6011C61.9661 33.5151 62.0789 33.4163 62.1601 33.3036V33.6837H62.624V31.8815C62.624 31.4983 62.5458 31.2015 62.3857 30.9929C62.2293 30.7854 61.9501 30.6795 61.5555 30.6795C61.3801 30.6795 61.2137 30.7061 61.0539 30.7525ZM61.882 33.1326C61.7692 33.2183 61.6214 33.2576 61.44 33.2576C61.2799 33.2576 61.1548 33.2148 61.0673 33.1322C60.9795 33.0466 60.9356 32.9339 60.9356 32.7951C60.9356 32.7133 60.9512 32.6439 60.9858 32.5808C61.0204 32.5178 61.0673 32.469 61.1206 32.4293C61.1788 32.3878 61.2435 32.3576 61.3116 32.34C61.3838 32.3202 61.4557 32.3103 61.5309 32.3103C61.7755 32.3103 61.9851 32.373 62.1575 32.5047V32.8776C62.0763 32.9747 61.9837 33.0607 61.882 33.1326ZM66.995 29.7092C67.0952 29.66 67.1886 29.5775 67.2768 29.4553L67.0073 29.0427C66.9384 29.1419 66.8602 29.2109 66.7724 29.2474C66.6792 29.2862 66.5827 29.3149 66.4842 29.3331L66.3904 29.351C66.3084 29.366 66.2213 29.3827 66.1271 29.3994C65.9761 29.4291 65.8288 29.4779 65.6885 29.5445C65.4659 29.6469 65.2876 29.7853 65.1524 29.9603C65.0173 30.1352 64.9115 30.3332 64.8393 30.5514C64.7661 30.7724 64.7168 31.0016 64.6922 31.2345C64.6669 31.4725 64.6546 31.6998 64.6546 31.9176C64.6546 32.1984 64.6889 32.4523 64.7578 32.68C64.827 32.9081 64.9238 33.0993 65.0519 33.2544C65.1807 33.4131 65.3345 33.5321 65.5162 33.6178C65.6979 33.7035 65.9015 33.7463 66.1301 33.7463C66.3401 33.7463 66.5344 33.7035 66.7098 33.6241C66.8789 33.5479 67.0322 33.437 67.1611 33.2977C67.2862 33.162 67.3867 33.0001 67.4552 32.8189C67.5271 32.6348 67.5634 32.4371 67.562 32.2377C67.562 32.0167 67.5308 31.8156 67.4712 31.6371C67.4163 31.4669 67.3288 31.3108 67.2143 31.1785C67.0995 31.0485 66.9593 30.9469 66.8036 30.881C66.6321 30.809 66.4492 30.7732 66.2649 30.7755C66.1457 30.7755 66.03 30.7921 65.9171 30.8251C65.8074 30.858 65.7021 30.9058 65.6037 30.9671C65.5082 31.0254 65.4207 31.0975 65.3438 31.1813C65.2686 31.2642 65.206 31.3566 65.1621 31.4622H65.1494C65.1586 31.3225 65.1764 31.1836 65.2027 31.0464C65.231 30.9044 65.2715 30.7687 65.3252 30.6402C65.3784 30.5117 65.4473 30.3959 65.5318 30.2903C65.6224 30.1838 65.7335 30.0994 65.8576 30.0428C65.994 29.9736 66.1383 29.9237 66.2869 29.8944L66.3851 29.8754C66.4831 29.8563 66.5765 29.8381 66.6659 29.8183C66.785 29.7921 66.8945 29.7584 66.995 29.7092ZM65.2526 32.5317C65.2042 32.365 65.1811 32.1912 65.1841 32.0167C65.205 31.9166 65.2433 31.8215 65.2969 31.7363C65.352 31.6456 65.4208 31.5651 65.5005 31.4983C65.6845 31.3447 65.912 31.2622 66.1457 31.2642C66.4373 31.2642 66.6566 31.3594 66.81 31.5482C66.9637 31.7395 67.0389 31.9767 67.0389 32.2643C67.0389 32.4063 67.0136 32.5352 66.9701 32.6538C66.9277 32.7709 66.8636 32.8776 66.7818 32.9678C66.6999 33.058 66.6019 33.1297 66.4935 33.1787C66.3811 33.2314 66.2586 33.258 66.1208 33.258C65.983 33.258 65.8576 33.2282 65.7418 33.1687C65.6267 33.1104 65.525 33.0259 65.4439 32.9212C65.359 32.8045 65.2943 32.6726 65.2529 32.5317H65.2526ZM71.3593 30.7426H70.8641V33.6805H71.3593V30.7426ZM68.2761 30.7426H68.7713V31.624H69.2289C69.4448 31.624 69.6198 31.6538 69.7613 31.7097C69.9024 31.766 70.0152 31.8418 70.0998 31.9342C70.1843 32.0267 70.2438 32.1358 70.2785 32.2575C70.3127 32.3797 70.3317 32.5051 70.3317 32.6372C70.3317 32.7693 70.3127 32.895 70.2721 33.0204C70.2345 33.1457 70.1686 33.2544 70.0808 33.3536C69.9933 33.4528 69.8741 33.5321 69.7233 33.5916C69.5733 33.6507 69.3916 33.6837 69.1723 33.6837H68.2732V30.7426H68.2761ZM68.7713 32.1151V33.1917H69.1317C69.3793 33.1917 69.5547 33.1457 69.6548 33.0529C69.7554 32.9605 69.8053 32.8288 69.8053 32.6538C69.8053 32.4753 69.752 32.3404 69.6519 32.2476C69.5484 32.1552 69.376 32.1088 69.1381 32.1088H68.7713V32.1151Z" fill="white"/>
<path d="M74.6335 33.2576C74.5143 33.4194 74.3576 33.5416 74.1696 33.6241C73.9766 33.7078 73.7702 33.7504 73.5619 33.7495C73.3548 33.7525 73.1488 33.7157 72.9539 33.6408C72.7789 33.5732 72.6189 33.4675 72.4841 33.3306C72.3509 33.1934 72.2463 33.028 72.1769 32.845C72.1024 32.6443 72.0652 32.4301 72.0675 32.2143C72.0675 32.0001 72.1017 31.8017 72.1739 31.6141C72.2397 31.4325 72.3398 31.2672 72.4681 31.1285C72.5939 30.9897 72.7436 30.8846 72.9134 30.8021C73.0919 30.7182 73.2853 30.6766 73.4804 30.6799C73.7027 30.6799 73.9097 30.7096 74.0977 30.7687C74.2857 30.8282 74.4454 30.9274 74.5769 31.0663L74.3483 31.4788C74.2377 31.372 74.1075 31.291 73.9659 31.2408C73.8312 31.1945 73.6904 31.1713 73.5489 31.1718C73.4242 31.1718 73.305 31.198 73.1889 31.2471C73.0749 31.2962 72.9707 31.3681 72.8821 31.459C72.792 31.5529 72.7206 31.6651 72.6721 31.789C72.6181 31.9244 72.5914 32.0704 72.5939 32.2175C72.5939 32.3797 72.6218 32.5249 72.6751 32.6499C72.7283 32.7792 72.8005 32.8879 72.891 32.9803C72.9822 33.0731 73.0883 33.1422 73.2108 33.1886C73.3333 33.2346 73.4618 33.2612 73.5995 33.2612C73.7566 33.2633 73.9119 33.2271 74.0538 33.1552C74.184 33.0882 74.301 32.9953 74.3985 32.8815L74.6335 33.2576ZM74.8866 30.7425H77.4281V31.2642H76.4064V33.6801H75.9113V31.2642H74.8904V30.7425H74.8866Z" fill="white"/>
<path fill-rule="evenodd" clip-rule="evenodd" d="M78.462 30.743H77.9668V34.9876H78.462V33.5452C78.5621 33.6146 78.6813 33.6642 78.819 33.6972C78.9568 33.7301 79.1009 33.7464 79.2483 33.7464C79.4676 33.7464 79.6649 33.7035 79.8436 33.6246C80.015 33.5464 80.1704 33.4332 80.3008 33.2913C80.4303 33.1473 80.5304 32.9763 80.595 32.7891C80.6642 32.5947 80.6989 32.3865 80.6989 32.1655C80.6989 31.9473 80.6676 31.7462 80.608 31.5645C80.5519 31.392 80.4646 31.2328 80.3511 31.096C80.2397 30.9626 80.1015 30.8577 79.9468 30.789C79.7776 30.7115 79.5948 30.6732 79.4106 30.6767C79.217 30.6767 79.0353 30.7164 78.863 30.7957C78.6906 30.8751 78.5558 30.9703 78.462 31.0893V30.743ZM78.8067 31.2876C78.9479 31.2083 79.1009 31.1686 79.2673 31.1686C79.4114 31.1686 79.5398 31.1916 79.656 31.2412C79.7688 31.2908 79.8626 31.3602 79.9412 31.4527C80.0194 31.5451 80.079 31.651 80.1162 31.776C80.1571 31.9013 80.1758 32.037 80.1758 32.1854C80.1758 32.344 80.1508 32.4857 80.1072 32.6178C80.0662 32.743 80.001 32.8577 79.9159 32.9545C79.8304 33.0502 79.7268 33.1255 79.6121 33.1755C79.4841 33.2326 79.3464 33.2607 79.2077 33.258C79.0733 33.258 78.9479 33.2418 78.8287 33.2088C78.6983 33.171 78.5745 33.1107 78.4624 33.0303V31.5745C78.5498 31.4626 78.666 31.367 78.8067 31.2876ZM84.4957 30.7426H84.0006V33.6805H84.4957V30.7426ZM81.41 30.7426H81.9052V31.624H82.3624C82.5783 31.624 82.754 31.6538 82.8948 31.7097C83.0363 31.7661 83.1491 31.8418 83.2336 31.9343C83.3181 32.0267 83.3777 32.1358 83.4119 32.2576C83.4466 32.3797 83.4652 32.5051 83.4652 32.6372C83.4652 32.7693 83.4466 32.895 83.4056 33.0204C83.3684 33.1458 83.3025 33.2545 83.2146 33.3536C83.1271 33.4528 83.008 33.5321 82.8572 33.5916C82.7071 33.6507 82.5254 33.6837 82.3061 33.6837H81.407V30.7426H81.41ZM81.9085 32.1151V33.1918H82.2689C82.5161 33.1918 82.6919 33.1458 82.792 33.0529C82.8922 32.9605 82.9424 32.8288 82.9424 32.6539C82.9424 32.4753 82.8892 32.3405 82.789 32.2476C82.6855 32.1552 82.5132 32.1088 82.2752 32.1088H81.9085V32.1151Z" fill="white"/>
<path d="M86.8711 32.1589L87.93 33.6806H87.3224L86.5044 32.4921L85.6741 33.6806H85.0978L86.1503 32.1851L85.16 30.7427H85.7683L86.5234 31.8518L87.2904 30.7427H87.8675L86.8711 32.1589ZM43.3782 37.3115H41.8588V39.7607H41.3636V36.8232H43.873V39.7607H43.3779L43.3782 37.3115ZM46.6833 37.3445H45.7059L45.6743 37.8395C45.64 38.2588 45.5931 38.5956 45.5272 38.8527C45.4613 39.1105 45.3798 39.3085 45.286 39.4469C45.1922 39.5858 45.0823 39.681 44.9568 39.7278C44.8274 39.7778 44.6905 39.8024 44.5529 39.8004L44.5153 39.2918C44.5792 39.2934 44.6425 39.2787 44.6999 39.249C44.7692 39.2161 44.8377 39.1435 44.9036 39.0348C44.9695 38.9221 45.0291 38.7638 45.0823 38.5587C45.1356 38.3513 45.1702 38.0807 45.1888 37.7404L45.2391 36.826H47.1785V39.7639H46.6833V37.3445Z" fill="white"/>
<path fill-rule="evenodd" clip-rule="evenodd" d="M48.5132 36.8299C48.3531 36.8759 48.209 36.9418 48.0869 37.0243L48.2187 37.4404C48.3315 37.3809 48.4443 37.3313 48.5568 37.2885C48.6696 37.2457 48.8137 37.2258 48.986 37.2258C49.1238 37.2258 49.2336 37.2488 49.3182 37.2948C49.403 37.3381 49.4656 37.4039 49.5095 37.4833C49.5531 37.5626 49.5814 37.6618 49.597 37.7768C49.6127 37.8927 49.619 38.018 49.619 38.1533C49.5175 38.0781 49.4019 38.0275 49.2802 38.0049C49.1627 37.98 49.0433 37.9667 48.9235 37.9653C48.7764 37.9653 48.6383 37.9883 48.5065 38.0279C48.3751 38.0676 48.2623 38.1271 48.1714 38.2064C48.0786 38.2856 48.0035 38.3859 47.9518 38.5C47.8968 38.6249 47.8692 38.7615 47.871 38.8995C47.871 39.1863 47.9491 39.4112 48.1055 39.5695C48.2619 39.7278 48.4693 39.8071 48.7262 39.8071C48.9581 39.8071 49.1428 39.7643 49.2839 39.6782C49.4246 39.5925 49.5371 39.4933 49.619 39.3807V39.7607H50.0829V37.9585C50.0829 37.5757 50.0043 37.2786 49.8446 37.0707C49.6879 36.8624 49.409 36.7573 49.0143 36.7573C48.845 36.7575 48.6765 36.7822 48.5132 36.8299ZM49.3435 39.2093C49.231 39.2954 49.0836 39.335 48.9019 39.335C48.7388 39.335 48.6167 39.2922 48.5292 39.2093C48.4413 39.1236 48.3974 39.0109 48.3974 38.8729C48.3974 38.7904 48.4131 38.721 48.4477 38.6583C48.4819 38.5956 48.5292 38.546 48.5825 38.5064C48.6357 38.4667 48.7012 38.4369 48.7735 38.4171C48.8451 38.3974 48.9188 38.3875 48.9927 38.3877C49.237 38.3877 49.447 38.4504 49.6194 38.5821V38.955C49.538 39.0519 49.4452 39.1376 49.3435 39.2093Z" fill="white"/>
<path d="M50.568 36.823H53.1091V37.3443H52.0874V39.7601H51.5923V37.3443H50.5714V36.823H50.568Z" fill="white"/>
<path fill-rule="evenodd" clip-rule="evenodd" d="M55.4215 39.7309C55.6096 39.6683 55.7693 39.5723 55.907 39.4406L55.7566 39.0312C55.6658 39.1173 55.5437 39.1899 55.3962 39.2494C55.2492 39.3089 55.0831 39.3382 54.901 39.3382C54.6289 39.3382 54.4033 39.2624 54.2245 39.1073C54.0458 38.9522 53.949 38.7344 53.9267 38.4568H56.0701C56.0917 38.3548 56.1014 38.2386 56.1014 38.1037C56.1014 37.9026 56.0668 37.7209 55.9979 37.5559C55.9337 37.3957 55.8399 37.2509 55.722 37.1302C55.6029 37.0102 55.4624 36.917 55.3087 36.8561C55.1479 36.7896 54.9768 36.756 54.8042 36.7569C54.5723 36.7569 54.3686 36.7998 54.1899 36.8791C54.0213 36.9545 53.869 37.0658 53.742 37.206C53.6184 37.3454 53.5234 37.5106 53.4628 37.6911C53.3969 37.8835 53.3641 38.087 53.366 38.2917C53.366 38.523 53.4032 38.734 53.4725 38.9225C53.5417 39.1105 53.6448 39.2724 53.7733 39.4076C53.9017 39.5429 54.0585 39.6453 54.2435 39.7179C54.4415 39.7928 54.6504 39.8298 54.8605 39.8269C55.0455 39.8269 55.2335 39.7936 55.4215 39.7309ZM54.1653 37.4666C54.3187 37.3182 54.5224 37.2457 54.7793 37.2457C55.0239 37.2457 55.2149 37.3182 55.356 37.4535C55.4968 37.5924 55.572 37.7836 55.5846 38.0279H53.8928C53.9167 37.8118 54.0136 37.6123 54.1653 37.4666ZM56.3427 36.8232H56.9693L57.9246 38.2394L56.9034 39.7607H56.2957L57.3669 38.239L56.3427 36.8232ZM58.0467 36.8232H58.5419V39.7607H58.0467V36.8232ZM60.3119 39.7607L59.2218 38.239L60.2401 36.8228H59.6257L58.664 38.239L59.698 39.7607H60.3119ZM62.5741 39.7309C62.7621 39.6683 62.9219 39.5723 63.0596 39.4406L62.9092 39.0312C62.8184 39.1173 62.6962 39.1899 62.5492 39.2494C62.4017 39.3089 62.2357 39.3382 62.054 39.3382C61.7815 39.3382 61.5558 39.2624 61.3771 39.1073C61.1984 38.9522 61.1016 38.7344 61.0793 38.4568H63.2227C63.2447 38.3548 63.254 38.2386 63.254 38.1037C63.254 37.9026 63.2197 37.7209 63.1505 37.5559C63.0863 37.3958 62.9926 37.251 62.875 37.1302C62.7557 37.0102 62.615 36.917 62.4613 36.8561C62.3005 36.7896 62.1293 36.756 61.9568 36.7569C61.7252 36.7569 61.5212 36.7998 61.3425 36.8791C61.1741 36.9547 61.0218 37.0659 60.895 37.206C60.7711 37.3452 60.676 37.5104 60.6157 37.6911C60.5497 37.8835 60.5169 38.0869 60.5189 38.2917C60.5189 38.523 60.5562 38.734 60.6254 38.9225C60.6943 39.1105 60.7978 39.2724 60.9262 39.4076C61.0547 39.5429 61.2111 39.6453 61.3961 39.7179C61.5942 39.7928 61.8032 39.8298 62.0134 39.8269C62.2038 39.8254 62.3929 39.7931 62.5741 39.7309ZM61.3179 37.4666C61.4717 37.3182 61.6753 37.2457 61.9322 37.2457C62.1735 37.2457 62.3675 37.3182 62.5086 37.4535C62.6497 37.5924 62.7245 37.7836 62.7372 38.0279H61.0454C61.0693 37.8118 61.1661 37.6123 61.3179 37.4666ZM65.2626 35.8362C64.9711 35.8362 64.8114 35.6644 64.7861 35.3213H64.3195C64.3195 35.453 64.3415 35.572 64.3821 35.6843C64.423 35.7965 64.4826 35.8921 64.5608 35.9715C64.639 36.0508 64.7395 36.1135 64.8549 36.1627C64.9711 36.2123 65.1059 36.2353 65.2593 36.2353C65.389 36.238 65.5179 36.2133 65.6387 36.1627C65.7515 36.1167 65.8453 36.0508 65.9268 35.9715C66.0067 35.8907 66.0696 35.7928 66.1115 35.6843C66.1554 35.572 66.1774 35.453 66.1774 35.3213H65.7139C65.6915 35.6644 65.5381 35.8362 65.2626 35.8362ZM63.9245 36.8228V39.7607H64.4197L66.03 37.5721V39.7607H66.5251V36.8228H66.03L64.4197 39.0113V36.8228H63.9245Z" fill="white"/>
</g>
<defs>
<clipPath id="clip0_89_750">
<rect width="89" height="47.6033" fill="white" transform="translate(0 0.198242)"/>
</clipPath>
</defs>
</svg>
