<svg width="106" height="106" viewBox="0 0 106 106" fill="none" xmlns="http://www.w3.org/2000/svg">
<path d="M25.0227 6C14.5391 6 6 14.5391 6 25.0227V53.305L34.3648 67.4853C35.4217 67.9715 35.8871 69.2398 35.401 70.2966C35.0417 71.0787 34.2805 71.5227 33.4773 71.5227C33.1814 71.5227 32.8856 71.4596 32.5897 71.3328L6 58.0359V79.9773C6 90.4609 14.5391 99 25.0227 99H79.9773C90.4609 99 99 90.4609 99 79.9773V25.0227C99 14.5391 90.4609 6 79.9773 6H25.0227ZM25.0227 10.2273H79.9773C88.1359 10.2273 94.7727 16.8641 94.7727 25.0227V79.9773C94.7727 88.1359 88.1359 94.7727 79.9773 94.7727H25.0227C16.8641 94.7727 10.2273 88.1359 10.2273 79.9773V64.8846L18.7231 69.1325C18.702 69.5764 18.6818 70.022 18.6818 70.4659C18.6818 79.2164 25.7836 86.3182 34.5341 86.3182C43.2845 86.3182 50.3864 79.2164 50.3864 70.4659C50.3864 68.6693 50.0906 66.9135 49.4988 65.2437L59.5386 57.6768C61.6733 58.4588 63.9136 58.8409 66.2386 58.8409C77.3141 58.8409 86.3182 49.8368 86.3182 38.7614C86.3182 27.6859 77.3141 18.6818 66.2386 18.6818C55.1632 18.6818 46.1591 27.6859 46.1591 38.7614C46.1591 41.1286 46.5613 43.4325 47.3645 45.6307L40.07 55.6085C38.3157 54.9533 36.4364 54.6136 34.5341 54.6136C30.8564 54.6136 27.4759 55.8603 24.7915 57.974L10.2273 50.7042V25.0227C10.2273 16.8641 16.8641 10.2273 25.0227 10.2273ZM66.2386 22.9091C74.9891 22.9091 82.0909 30.0109 82.0909 38.7614C82.0909 47.5118 74.9891 54.6136 66.2386 54.6136C64.0616 54.6136 61.9904 54.1917 60.067 53.3463C59.3695 53.0292 58.5663 53.1336 57.9533 53.5775L45.6513 62.8576C44.8481 63.4706 44.597 64.5495 45.0197 65.4584C45.7806 67.0225 46.1591 68.7116 46.1591 70.4659C46.1591 76.8702 40.9384 82.0909 34.5341 82.0909C28.4045 82.0909 23.3308 77.2911 22.9504 71.2461L30.7073 75.1143L30.7733 75.139L30.8146 75.1597C31.66 75.5613 32.5473 75.75 33.4773 75.75C35.9502 75.75 38.2133 74.3122 39.2278 72.0718C40.6863 68.9225 39.3301 65.1798 36.2019 63.6792L29.1674 60.1743C30.7738 59.3289 32.5895 58.8409 34.5341 58.8409C36.3941 58.8409 38.1695 59.2628 39.8182 60.1083C40.7482 60.5944 41.8886 60.3221 42.5015 59.4767L49.053 50.5143L51.4638 47.1746C51.9077 46.5828 52.012 45.7791 51.695 45.0816C50.8284 43.0948 50.3864 40.9595 50.3864 38.7614C50.3864 30.0109 57.4882 22.9091 66.2386 22.9091ZM66.2386 27.1364C59.8434 27.1364 54.6136 32.3661 54.6136 38.7614C54.6136 45.1566 59.8434 50.3864 66.2386 50.3864C72.6339 50.3864 77.8636 45.1566 77.8636 38.7614C77.8636 32.3661 72.6339 27.1364 66.2386 27.1364ZM66.2386 31.3636C70.3493 31.3636 73.6364 34.6507 73.6364 38.7614C73.6364 42.872 70.3493 46.1591 66.2386 46.1591C62.1279 46.1591 58.8409 42.872 58.8409 38.7614C58.8409 34.6507 62.1279 31.3636 66.2386 31.3636Z" fill="url(#paint0_linear_9_1061)"/>
<defs>
<linearGradient id="paint0_linear_9_1061" x1="0.772163" y1="164.415" x2="155.6" y2="129.63" gradientUnits="userSpaceOnUse">
<stop stop-color="#8B3FFD"/>
<stop offset="1" stop-color="#FD3F9A" stop-opacity="0.83"/>
</linearGradient>
</defs>
</svg>
