<svg width="55" height="67" viewBox="0 0 55 67" fill="none" xmlns="http://www.w3.org/2000/svg">
<path d="M15.2652 53.6985L13.4024 60.3649H13.0837L11.2209 53.6985C10.9022 52.5704 9.90208 51.7938 8.75912 51.7938H4.29167V66.3057H8.76461V57.7289H9.08334L11.644 66.3057H14.8421L17.3973 57.7289H17.716V66.3057H22.189V51.7938H17.7215C16.584 51.7938 15.584 52.5704 15.2652 53.6985ZM40.0312 66.3057H44.5316V62.0145H49.0597C51.4279 62.0145 53.4448 60.6313 54.2249 58.687H40.0312V66.3057ZM32.058 53.3244L28.9094 60.3706H28.5907V51.7938H24.1177V66.3057H27.9148C28.9149 66.3057 29.8214 65.7048 30.2391 64.7751L33.3877 57.7346H33.7066V66.3057H38.1794V51.7938H34.3823C33.3822 51.7938 32.4757 52.3947 32.058 53.3244Z" fill="#006848"/>
<path fill-rule="evenodd" clip-rule="evenodd" d="M49.5047 51.7938C50.796 51.7938 51.9665 52.304 52.8512 53.143C53.8403 54.0726 54.4612 55.4105 54.4612 56.9013C54.4612 57.2074 54.4283 57.5079 54.3788 57.8026H46.0703C43.2569 57.8026 40.872 55.898 40.0698 53.2677C40.0588 53.2394 40.0533 53.2053 40.0423 53.1713C40.0203 53.092 40.0038 53.0069 39.9818 52.9276C39.8994 52.5591 39.8445 52.185 39.8225 51.7938H49.5047Z" fill="url(#paint0_linear_213_3)"/>
<path fill-rule="evenodd" clip-rule="evenodd" d="M22.865 23.1196H34.6517V45.0927H22.865V23.1196Z" fill="#FF5F00"/>
<path fill-rule="evenodd" clip-rule="evenodd" d="M23.6335 34.1058C23.6335 29.6494 25.6409 25.6784 28.7588 23.1193C26.4951 21.2662 23.5908 20.119 20.4729 20.119C13.0413 20.119 7.01909 26.3844 7.01909 34.1058C7.01909 41.8273 13.0413 48.0927 20.4729 48.0927C23.6335 48.0927 26.4951 46.9455 28.7588 45.0923C25.6409 42.5332 23.6335 38.5622 23.6335 34.1058Z" fill="#EB001B"/>
<path fill-rule="evenodd" clip-rule="evenodd" d="M50.5412 34.1058C50.5412 41.8273 44.519 48.0927 37.0874 48.0927C33.9268 48.0927 31.0652 46.9455 28.8015 45.0923C31.9194 42.5332 33.9268 38.5622 33.9268 34.1058C33.9268 29.6494 31.9194 25.6784 28.7588 23.1193C31.0652 21.2662 33.9695 20.119 37.0874 20.119C44.519 20.119 50.5412 26.3844 50.5412 34.1058Z" fill="#F79E1B"/>
<path d="M25.342 1.10214L22.0105 17.1186H17.9957L21.3699 1.10214H25.342ZM42.2554 11.4268L44.3482 5.42615L45.5441 11.4709H42.2554V11.4268ZM46.74 17.1186H50.4558L47.2098 1.10214H43.793C43.0242 1.10214 42.3835 1.54336 42.0845 2.29345L36.0623 17.1186H40.2907L41.1022 14.736H46.2275L46.74 17.1186ZM36.2759 11.868C36.3186 7.63228 30.5954 7.41167 30.6381 5.5144C30.6381 4.9408 31.1506 4.32309 32.3465 4.19072C32.9445 4.10247 34.5248 4.05835 36.3186 4.89668L37.002 1.54336C36.0196 1.14626 34.781 0.837402 33.2434 0.837402C29.2713 0.837402 26.4952 2.99941 26.4524 6.13211C26.4097 8.42649 28.4598 9.75016 29.9547 10.5002C31.4923 11.2945 32.0475 11.8239 32.0475 12.4858C32.0475 13.5888 30.7662 14.0301 29.6557 14.0742C27.6483 14.1183 26.4524 13.5006 25.5128 13.0594L24.7867 16.5892C25.7264 17.0304 27.4348 17.4275 29.2286 17.4275C33.4997 17.3834 36.2332 15.2214 36.2759 11.868ZM19.6614 1.10214L13.1267 17.1186H8.89836L5.65235 4.32309C5.48151 3.52888 5.31067 3.26414 4.75543 2.91116C3.77309 2.38169 2.19279 1.85222 0.78334 1.54336L0.868762 1.10214H7.70247C8.59939 1.10214 9.32547 1.71985 9.53902 2.73467L11.2474 12.0004L15.4331 1.10214H19.6614Z" fill="#2A2A6C"/>
<defs>
<linearGradient id="paint0_linear_213_3" x1="5368.57" y1="20476.1" x2="33.6339" y2="20476.1" gradientUnits="userSpaceOnUse">
<stop stop-color="#1E5CD8"/>
<stop offset="1" stop-color="#02AFFF"/>
</linearGradient>
</defs>
</svg>
